<svg width="110" height="35" viewBox="0 0 110 35" fill="none" xmlns="http://www.w3.org/2000/svg">
<path d="M107.192 33.6791C107.033 34.2079 106.475 34.5074 105.946 34.3481L97.3285 31.7518C96.7997 31.5925 96.5002 31.0347 96.6595 30.5059C96.8188 29.9771 97.3767 29.6776 97.9055 29.8369L105.565 32.1447L107.873 24.4848C108.032 23.956 108.59 23.6564 109.119 23.8157C109.648 23.9751 109.947 24.5329 109.788 25.0617L107.192 33.6791ZM0.106089 32.9686C11.052 9.45169 32.4371 -0.643358 53.7485 0.193179C75.0247 1.02833 96.2901 12.7567 107.115 32.9176L105.353 33.8637C94.8938 14.3839 74.3052 3.00163 53.6701 2.19164C33.0702 1.38303 12.487 11.1083 1.9193 33.8126L0.106089 32.9686Z" fill="url(#paint0_linear_531_692)"/>
<defs>
<linearGradient id="paint0_linear_531_692" x1="106.234" y1="33.3906" x2="1.0127" y2="33.3906" gradientUnits="userSpaceOnUse">
<stop stop-color="#D9AF78"/>
<stop offset="1" stop-color="#D9AF78" stop-opacity="0"/>
</linearGradient>
</defs>
</svg>
