<svg width="130" height="42" viewBox="0 0 130 42" fill="none" xmlns="http://www.w3.org/2000/svg">
<path d="M25.3134 2.44531H20.3763C20.2578 2.44531 20.1515 2.51664 20.1064 2.626L10.0226 27.1849C9.9439 27.3767 10.0851 27.5872 10.2926 27.5872H15.3861C15.495 27.5872 15.5876 27.5352 15.6288 27.4344C16.3395 25.7018 22.7556 10.061 22.8449 9.84273C23.1501 10.584 27.6233 21.4501 27.3401 20.7629L30.0494 27.4057C30.0941 27.5154 30.2007 27.5872 30.3197 27.5872H35.3973C35.6051 27.5872 35.7456 27.3768 35.6672 27.1849L25.5833 2.626C25.5381 2.51664 25.4318 2.44531 25.3135 2.44531H25.3134Z" fill="white"/>
<path d="M45.4735 27.5872H50.4105C50.5291 27.5872 50.6357 27.5157 50.6804 27.4062L60.7643 2.84755C60.843 2.65573 60.7022 2.44531 60.4944 2.44531H55.4008C55.2919 2.44531 55.1993 2.49731 55.158 2.59806C54.4474 4.33065 48.0312 19.9714 47.9424 20.1896C47.6368 19.4485 43.1639 8.58224 43.4468 9.26947L40.7377 2.62663C40.6928 2.51706 40.5861 2.44531 40.4675 2.44531H35.3896C35.1821 2.44531 35.0413 2.65562 35.1196 2.84755L45.2035 27.4062C45.2488 27.5157 45.3555 27.5872 45.4734 27.5872H45.4735Z" fill="white"/>
<path d="M106.623 23.0259C102.199 23.0259 98.6124 19.4393 98.6124 15.0149C98.6124 10.5907 102.199 7.00406 106.623 7.00406C111.047 7.00406 114.634 10.5908 114.634 15.0149C114.634 19.4394 111.047 23.0259 106.623 23.0259V23.0259ZM106.623 2C99.2358 2 93.2471 7.82703 93.2471 15.0149C93.2471 22.203 99.2357 28.03 106.623 28.03C114.011 28.03 120 22.203 120 15.0149C120 7.82703 114.011 2 106.623 2Z" fill="white"/>
<path d="M75.0442 22.7383H71.29V7.29296H75.0442C79.2364 7.29296 82.7665 10.6643 82.7665 15.0156C82.7665 19.1937 79.3758 22.7383 75.0442 22.7383V22.7383ZM75.2345 2.44542H66.1878C66.0265 2.44542 65.896 2.5678 65.896 2.72874V27.3025C65.896 27.4638 66.0266 27.5857 66.1878 27.5857H75.2345C82.7665 27.5857 88.1369 21.9067 88.1369 15.0155C88.1369 8.12443 82.7664 2.44531 75.2345 2.44531V2.44542Z" fill="white"/>
<path d="M82.7663 15.0213C82.7663 15.0195 82.7656 15.0178 82.7656 15.0156C82.7656 15.0178 82.7663 15.0195 82.7663 15.0216V15.0213Z" fill="white"/>
<path d="M11.1744 36.2743H10V35.9688H12.7013V36.2743H11.5271V39.3098H11.1744V36.2743Z" fill="white"/>
<path d="M16.2951 35.9688V39.3098H15.9469V37.769H13.8559V39.3098H13.5032V35.9688H13.8559V37.459H15.9469V35.9688H16.2951Z" fill="white"/>
<path d="M19.9833 39.0041V39.3097H17.6213V35.9688H19.9123V36.2742H17.9745V37.463H19.7015V37.763H17.9745V39.0041H19.9833Z" fill="white"/>
<path d="M24.5079 38.131L23.7065 36.3368L22.9047 38.131H24.5079V38.131ZM24.6369 38.4176H22.7757L22.3752 39.3098H22.0071L23.5345 35.9688H23.8832L25.4105 39.3098H25.0381L24.637 38.4176H24.6369Z" fill="white"/>
<path d="M26.2019 35.9688H26.5547V39.0042H28.4251V39.3098H26.2019V35.9688Z" fill="white"/>
<path d="M29.251 35.9688H29.6037V39.3097H29.251V35.9688Z" fill="white"/>
<path d="M33.2833 37.6357H33.6223V38.9103C33.4666 39.0471 33.2818 39.1519 33.0688 39.2248C32.8554 39.2991 32.6312 39.3351 32.3956 39.3351C32.0618 39.3351 31.7612 39.2612 31.4943 39.1156C31.2266 38.9687 31.0165 38.7665 30.8642 38.5074C30.7115 38.2484 30.6348 37.9573 30.6348 37.6357C30.6348 37.3143 30.7113 37.0248 30.8642 36.7656C31.0165 36.5051 31.2266 36.3029 31.4943 36.1575C31.7612 36.0103 32.0633 35.9375 32.4009 35.9375C32.6554 35.9375 32.8889 35.9784 33.1023 36.0583C33.3152 36.14 33.4948 36.2608 33.6412 36.4192L33.4223 36.6432C33.158 36.3827 32.822 36.2519 32.4153 36.2519C32.1447 36.2519 31.9001 36.3114 31.6823 36.431C31.4641 36.5503 31.2931 36.7161 31.1693 36.9273C31.0451 37.1395 30.9834 37.3751 30.9834 37.6356C30.9834 37.8962 31.0452 38.1319 31.1693 38.343C31.2931 38.5523 31.4633 38.7185 31.6804 38.8392C31.8967 38.9596 32.1395 39.0195 32.4101 39.0195C32.7536 39.0195 33.0446 38.9336 33.2833 38.762V37.6356V37.6357Z" fill="white"/>
<path d="M37.65 35.9688V39.3098H37.3595L35.2114 36.5987V39.3098H34.8586V35.9688H35.1493L37.3018 38.6797V35.9688H37.65Z" fill="white"/>
<path d="M42.4467 35.9688V39.3098H42.1077V36.6367L40.796 38.8848H40.6284L39.3158 36.6513V39.3098H38.9775V35.9688H39.2686L40.7197 38.4454L42.1556 35.9688H42.4467Z" fill="white"/>
<path d="M46.1348 39.0041V39.3097H43.7729V35.9688H46.0638V36.2742H44.1261V37.463H45.8534V37.763H44.1261V39.0041H46.1348Z" fill="white"/>
<path d="M49.9958 35.9688V39.3098H49.7051L47.557 36.5987V39.3098H47.2043V35.9688H47.4949L49.6476 38.6797V35.9688H49.9958Z" fill="white"/>
<path d="M51.972 36.2743H50.7979V35.9688H53.4994V36.2743H52.3248V39.3098H51.972V36.2743Z" fill="white"/>
<path d="M57.756 38.131L56.9542 36.3368L56.1524 38.131H57.756ZM57.885 38.4176H56.0239L55.6228 39.3098H55.2551L56.7826 35.9688H57.1308L58.6586 39.3098H58.2857L57.8851 38.4176H57.885Z" fill="white"/>
<path d="M62.2421 35.9688V39.3098H61.9511L59.803 36.5987V39.3098H59.4502V35.9688H59.7413L61.8938 38.6797V35.9688H62.2421Z" fill="white"/>
<path d="M64.9093 39.0041C65.2018 39.0041 65.4579 38.9461 65.6776 38.8294C65.8972 38.7146 66.0668 38.5529 66.1885 38.3476C66.3096 38.1424 66.3698 37.9067 66.3698 37.6392C66.3698 37.3731 66.3096 37.136 66.1885 36.9308C66.0669 36.7255 65.8974 36.5654 65.6776 36.449C65.4579 36.3326 65.2018 36.2742 64.9093 36.2742H63.9214V39.0041H64.9093ZM63.5686 35.9688H64.9283C65.281 35.9688 65.5933 36.0401 65.8639 36.181C66.1338 36.3237 66.3442 36.5204 66.4936 36.7734C66.6434 37.0266 66.7181 37.3147 66.7181 37.6392C66.7181 37.9637 66.6434 38.2533 66.4936 38.505C66.3442 38.7585 66.1338 38.9562 65.8639 39.0975C65.5933 39.2383 65.281 39.3097 64.9283 39.3097H63.5686V35.9688Z" fill="white"/>
<path d="M69.7935 39.1156C69.528 38.9687 69.3195 38.7662 69.1686 38.5074C69.0174 38.2485 68.9414 37.9573 68.9414 37.6358C68.9414 37.314 69.0173 37.0243 69.1686 36.7656C69.3195 36.5051 69.5287 36.3029 69.7957 36.1572C70.063 36.0104 70.3618 35.9375 70.693 35.9375C70.9409 35.9375 71.1704 35.9784 71.3808 36.0614C71.59 36.1442 71.7681 36.265 71.9145 36.4238L71.6908 36.6474C71.4298 36.3843 71.1005 36.252 70.7024 36.252C70.4381 36.252 70.1984 36.3129 69.9823 36.4338C69.766 36.5546 69.5965 36.7189 69.4738 36.93C69.3516 37.1396 69.2902 37.3753 69.2902 37.6358C69.2902 37.8959 69.3516 38.132 69.4738 38.3428C69.5965 38.5524 69.7659 38.7183 69.9823 38.839C70.1983 38.9598 70.4381 39.0197 70.7024 39.0197C71.103 39.0197 71.4329 38.8854 71.6908 38.6193L71.9145 38.8435C71.7681 39.0022 71.5893 39.1241 71.3777 39.2084C71.1667 39.2931 70.9365 39.3352 70.6886 39.3352C70.3578 39.3352 70.0592 39.2609 69.7935 39.1156V39.1156Z" fill="white"/>
<path d="M75.6995 35.9688V39.3098H75.3513V37.769H73.2605V39.3098H72.9077V35.9688H73.2605V37.459H75.3513V35.9688H75.6995Z" fill="white"/>
<path d="M78.9918 38.131L78.1899 36.3368L77.3882 38.131H78.9918ZM79.1204 38.4176H77.2593L76.8586 39.3098H76.491L78.0184 35.9688H78.3666L79.8941 39.3098H79.5216L79.1205 38.4176H79.1204Z" fill="white"/>
<path d="M83.4784 35.9688V39.3098H83.1875L81.0393 36.5987V39.3098H80.6865V35.9688H80.9776L83.1301 38.6797V35.9688H83.4784Z" fill="white"/>
<path d="M87.1577 37.6357H87.4968V38.9103C87.3411 39.0471 87.1562 39.1519 86.9429 39.2248C86.7299 39.2991 86.5058 39.3351 86.2697 39.3351C85.936 39.3351 85.6356 39.2612 85.3687 39.1156C85.1007 38.9687 84.891 38.7665 84.7383 38.5074C84.5855 38.2484 84.5093 37.9573 84.5093 37.6357C84.5093 37.3143 84.5854 37.0248 84.7383 36.7656C84.891 36.5051 85.1007 36.3029 85.3687 36.1575C85.6356 36.0103 85.9374 35.9375 86.275 35.9375C86.5299 35.9375 86.763 35.9784 86.9767 36.0583C87.1897 36.14 87.3693 36.2608 87.5157 36.4192L87.2968 36.6432C87.0324 36.3827 86.6964 36.2519 86.2898 36.2519C86.0192 36.2519 85.7742 36.3114 85.5567 36.431C85.3385 36.5503 85.1676 36.7161 85.0438 36.9273C84.9196 37.1395 84.8579 37.3751 84.8579 37.6356C84.8579 37.8962 84.9197 38.1319 85.0438 38.343C85.1676 38.5523 85.3377 38.7185 85.5549 38.8392C85.7708 38.9596 86.0139 39.0195 86.2846 39.0195C86.628 39.0195 86.9187 38.9336 87.1577 38.762V37.6356V37.6357Z" fill="white"/>
<path d="M91.0942 39.0041V39.3097H88.7324V35.9688H91.0233V36.2742H89.0855V37.463H90.8128V37.763H89.0855V39.0041H91.0942Z" fill="white"/>
<path d="M94.2084 39.1156C93.9429 38.9687 93.734 38.7662 93.5831 38.5074C93.4319 38.2485 93.3564 37.9573 93.3564 37.6358C93.3564 37.314 93.4319 37.0243 93.5831 36.7656C93.734 36.5051 93.9437 36.3029 94.2106 36.1572C94.4779 36.0104 94.7767 35.9375 95.1079 35.9375C95.3559 35.9375 95.5849 35.9784 95.7956 36.0614C96.0049 36.1442 96.1829 36.265 96.3294 36.4238L96.1056 36.6474C95.8448 36.3843 95.5153 36.252 95.1173 36.252C94.853 36.252 94.6133 36.3129 94.3969 36.4338C94.181 36.5546 94.0114 36.7189 93.8883 36.93C93.7661 37.1396 93.7051 37.3753 93.7051 37.6358C93.7051 37.8959 93.7661 38.132 93.8883 38.3428C94.0114 38.5524 94.1809 38.7183 94.3969 38.839C94.6132 38.9598 94.853 39.0197 95.1173 39.0197C95.518 39.0197 95.8477 38.8854 96.1056 38.6193L96.3294 38.8435C96.1829 39.0022 96.0041 39.1241 95.7927 39.2084C95.5812 39.2931 95.3515 39.3352 95.1035 39.3352C94.7727 39.3352 94.4742 39.2609 94.2084 39.1156V39.1156Z" fill="white"/>
<path d="M99.4274 38.8405C99.6408 38.7211 99.8072 38.5568 99.9284 38.3442C100.05 38.133 100.11 37.896 100.11 37.6357C100.11 37.3752 100.05 37.1396 99.9284 36.927C99.8072 36.7158 99.6408 36.55 99.4274 36.4307C99.2145 36.3115 98.9758 36.2519 98.7116 36.2519C98.4476 36.2519 98.2083 36.3115 97.9937 36.4307C97.7788 36.55 97.6101 36.7158 97.487 36.927C97.3646 37.1396 97.3038 37.3752 97.3038 37.6357C97.3038 37.896 97.3647 38.133 97.487 38.3442C97.6101 38.5568 97.7787 38.7211 97.9937 38.8405C98.2082 38.9597 98.4476 39.0193 98.7116 39.0193C98.9759 39.0193 99.2145 38.9597 99.4274 38.8405ZM97.8116 39.1125C97.5432 38.9658 97.3328 38.762 97.1823 38.5045C97.031 38.2469 96.9556 37.9573 96.9556 37.6357C96.9556 37.3139 97.031 37.0242 97.1823 36.7667C97.3328 36.5095 97.5432 36.3069 97.8116 36.1586C98.0808 36.0103 98.3807 35.9375 98.7116 35.9375C99.0427 35.9375 99.3405 36.0103 99.6066 36.1572C99.8721 36.3029 100.081 36.5051 100.234 36.7652C100.386 37.0242 100.463 37.3139 100.463 37.6357C100.463 37.9573 100.387 38.2484 100.234 38.5074C100.081 38.7661 99.8721 38.9683 99.6066 39.1155C99.3405 39.2609 99.0428 39.3351 98.7116 39.3351C98.3808 39.3351 98.0808 39.2609 97.8116 39.1125V39.1125Z" fill="white"/>
<path d="M104.962 35.9688V39.3098H104.623V36.6367L103.312 38.8848H103.144L101.831 36.6513V39.3098H101.493V35.9688H101.784L103.235 38.4454L104.671 35.9688H104.962Z" fill="white"/>
<path d="M108.289 37.7281C108.464 37.5828 108.551 37.3787 108.551 37.114C108.551 36.8449 108.464 36.6367 108.289 36.491C108.113 36.3471 107.861 36.2743 107.53 36.2743H106.642V37.9448H107.53C107.861 37.9448 108.113 37.8724 108.289 37.7281ZM108.542 36.2743C108.784 36.478 108.904 36.759 108.904 37.114C108.904 37.4704 108.784 37.75 108.542 37.9522C108.3 38.1544 107.966 38.2549 107.539 38.2549H106.642V39.3098H106.289V35.9688H107.539C107.966 35.9688 108.3 36.0706 108.542 36.2743Z" fill="white"/>
<path d="M111.705 38.131L110.904 36.3368L110.102 38.131H111.705ZM111.834 38.4176H109.973L109.572 39.3098H109.205L110.732 35.9688H111.081L112.608 39.3098H112.235L111.835 38.4176H111.834Z" fill="white"/>
<path d="M116.192 35.9688V39.3098H115.901L113.753 36.5987V39.3098H113.4V35.9688H113.691L115.843 38.6797V35.9688H116.192Z" fill="white"/>
<path d="M118.664 38.1545V39.3098H118.316V38.1545L116.98 35.9688H117.357L118.502 37.8444L119.647 35.9688H120L118.664 38.1545Z" fill="white"/>
</svg>
