<svg width="15" height="17" viewBox="0 0 15 17" fill="none" xmlns="http://www.w3.org/2000/svg">
<path d="M14.7321 1.13333H12.8571V0.283333C12.8571 0.12665 12.7374 0 12.5893 0H10.7143C10.5662 0 10.4464 0.12665 10.4464 0.283333V1.13333H4.55357V0.283333C4.55357 0.12665 4.43384 0 4.28571 0H2.41071C2.26259 0 2.14286 0.12665 2.14286 0.283333V1.13333H0.267857C0.119732 1.13333 0 1.25998 0 1.41667V16.7167C0 16.8734 0.119732 17 0.267857 17H14.7321C14.8803 17 15 16.8734 15 16.7167V1.41667C15 1.25998 14.8803 1.13333 14.7321 1.13333ZM10.9821 0.566667H12.3214V2.26667H10.9821V0.566667ZM2.67857 0.566667H4.01786V2.26667H2.67857V0.566667ZM0.535714 1.7H2.14286V2.55C2.14286 2.70668 2.26259 2.83333 2.41071 2.83333H4.28571C4.43384 2.83333 4.55357 2.70668 4.55357 2.55V1.7H10.4464V2.55C10.4464 2.70668 10.5662 2.83333 10.7143 2.83333H12.5893C12.7374 2.83333 12.8571 2.70668 12.8571 2.55V1.7H14.4643V4.25H0.535714V1.7ZM0.535714 16.4333V4.81667H14.4643V16.4333H0.535714Z" fill="white"/>
<path d="M2.41071 6.51667V14.7333H12.5893V6.51667H2.41071ZM7.76786 7.08333H9.64286V9.06667H7.76786V7.08333ZM9.64286 11.6167H7.76786V9.63333H9.64286V11.6167ZM5.35714 9.63333H7.23214V11.6167H5.35714V9.63333ZM5.35714 7.08333H7.23214V9.06667H5.35714V7.08333ZM2.94643 7.08333H4.82143V9.06667H2.94643V7.08333ZM2.94643 9.63333H4.82143V11.6167H2.94643V9.63333ZM4.82143 14.1667H2.94643V12.1833H4.82143V14.1667ZM7.23214 14.1667H5.35714V12.1833H7.23214V14.1667ZM9.64286 14.1667H7.76786V12.1833H9.64286V14.1667ZM12.0536 14.1667H10.1786V12.1833H12.0536V14.1667ZM12.0536 11.6167H10.1786V9.63333H12.0536V11.6167ZM12.0536 7.08333V9.06667H10.1786V7.08333H12.0536Z" fill="white"/>
</svg>
