<svg width="30" height="30" viewBox="0 0 30 30" fill="none" xmlns="http://www.w3.org/2000/svg">
<path fill-rule="evenodd" clip-rule="evenodd" d="M13.6207 0.0623456C7.29329 0.650788 2.00356 5.16531 0.463307 11.2916C-1.56858 19.3736 3.27039 27.5185 11.305 29.5403C17.484 31.0951 23.9393 28.6252 27.4685 23.3558C30.844 18.316 30.8438 11.6951 27.4681 6.65033C26.4149 5.07639 24.929 3.59054 23.3524 2.53493C20.5183 0.637365 17.0134 -0.253124 13.6207 0.0623456ZM10.2612 8.58828C10.3678 8.64215 11.4772 9.70444 12.7267 10.949L14.9984 13.2119L17.2701 10.949C18.5196 9.70444 19.6341 8.63805 19.747 8.57926C19.8768 8.51161 20.0815 8.47152 20.3039 8.47011C21.0145 8.46554 21.5369 8.98786 21.5324 9.69834C21.531 9.92079 21.4909 10.1254 21.4232 10.2552C21.3644 10.368 20.2978 11.4825 19.0531 12.7317L16.7898 15.0031L19.0531 17.2744C20.2978 18.5237 21.3644 19.6381 21.4232 19.7509C21.4909 19.8807 21.531 20.0853 21.5324 20.3078C21.5369 21.0183 21.0145 21.5406 20.3039 21.536C20.0825 21.5346 19.8762 21.4944 19.747 21.4274C19.6341 21.3689 18.5197 20.3024 17.2704 19.0573L14.9991 16.7935L12.727 19.0567C11.4774 20.3015 10.3626 21.3681 10.2498 21.4269C10.12 21.4945 9.9153 21.5346 9.69282 21.536C8.98222 21.5406 8.45982 21.0183 8.46439 20.3078C8.46579 20.0853 8.50589 19.8807 8.57355 19.7509C8.63235 19.6381 9.69891 18.5237 10.9437 17.2744L13.2069 15.0031L10.9437 12.7317C9.69891 11.4825 8.63235 10.368 8.57355 10.2552C8.50589 10.1254 8.46579 9.92079 8.46439 9.69834C8.46075 9.13071 8.80037 8.67198 9.35654 8.49321C9.57621 8.42263 10.0271 8.46999 10.2612 8.58828Z" fill="#D9AF78"/>
</svg>
