<svg width="15" height="15" viewBox="0 0 15 15" fill="none" xmlns="http://www.w3.org/2000/svg">
<path fill-rule="evenodd" clip-rule="evenodd" d="M15 7.49997L14.9989 7.49998L14.9955 7.50003L14.9899 7.50017L14.982 7.50045L14.9719 7.50091L14.9596 7.50159L14.945 7.50254L14.9283 7.5038L14.9093 7.50542L14.8882 7.50743L14.8648 7.50989L14.8394 7.51284L14.8117 7.51631L14.782 7.52035L14.7502 7.525L14.7163 7.5303L14.6803 7.53629L14.6423 7.54301L14.6023 7.55049L14.5604 7.55878L14.5165 7.56791L14.4707 7.57792L14.423 7.58884L14.3734 7.6007L14.322 7.61355L14.2689 7.6274L14.214 7.6423L14.1574 7.65827L14.0992 7.67534L14.0393 7.69354L13.9778 7.71289L13.9148 7.73342L13.8503 7.75517L13.7843 7.77813L13.7169 7.80235L13.6482 7.82784L13.5781 7.85462L13.5067 7.88271L13.4341 7.91213L13.3604 7.94288L13.2855 7.97498L13.2095 8.00846L13.1325 8.04331L13.0546 8.07954L12.9756 8.11717L12.8959 8.15621L12.8153 8.19665L12.7339 8.2385L12.6518 8.28176L12.569 8.32644L12.4857 8.37253L12.4017 8.42004L12.3173 8.46895L12.2324 8.51926L12.1471 8.57097L12.0615 8.62407L11.9755 8.67854L11.8894 8.73439L11.803 8.79159L11.7165 8.85013L11.6299 8.90999L11.5433 8.97117L11.4568 9.03363L11.3703 9.09737L11.2839 9.16235L11.1977 9.22857L11.1117 9.29598L11.026 9.36457L10.9406 9.43432L10.8556 9.50519L10.7711 9.57715L10.687 9.65018L10.6034 9.72423L10.5203 9.79929L10.4379 9.87531L10.3561 9.95226L10.2751 10.0301L10.1947 10.1088L10.1151 10.1883L10.0364 10.2686L9.95844 10.3496L9.88142 10.4314L9.80532 10.5137L9.73018 10.5967L9.65605 10.6803L9.58294 10.7643L9.51089 10.8489L9.43993 10.9339L9.3701 11.0192L9.30141 11.1049L9.2339 11.1908L9.16759 11.277L9.10251 11.3634L9.03867 11.4499L8.9761 11.5364L8.91483 11.623L8.85486 11.7096L8.79621 11.7961L8.73891 11.8825L8.68295 11.9687L8.62837 12.0546L8.57516 12.1403L8.52334 12.2256L8.47291 12.3105L8.42389 12.395L8.37628 12.479L8.33007 12.5624L8.28528 12.6452L8.2419 12.7274L8.19994 12.8088L8.15939 12.8895L8.12024 12.9693L8.0825 13.0483L8.04615 13.1264L8.01119 13.2034L7.97761 13.2795L7.9454 13.3545L7.91454 13.4283L7.88502 13.501L7.85683 13.5724L7.82994 13.6426L7.80435 13.7115L7.78003 13.779L7.75696 13.8451L7.73513 13.9097L7.7145 13.9729L7.69505 14.0345L7.67676 14.0945L7.6596 14.1529L7.64354 14.2096L7.62856 14.2646L7.61463 14.3179L7.6017 14.3694L7.58976 14.4191L7.57877 14.4669L7.56869 14.5129L7.55949 14.557L7.55114 14.5991L7.54359 14.6392L7.53681 14.6774L7.53077 14.7135L7.52541 14.7476L7.52071 14.7796L7.51663 14.8095L7.51311 14.8372L7.51012 14.8629L7.50763 14.8864L7.50558 14.9077L7.50393 14.9268L7.50264 14.9438L7.50167 14.9585L7.50097 14.971L7.50049 14.9813L7.5002 14.9893L7.50005 14.9951L7.5 14.9987L7.49999 15L7.49998 14.9991L7.49993 14.9959L7.4998 14.9904L7.49953 14.9827L7.49909 14.9728L7.49843 14.9607L7.49751 14.9463L7.49627 14.9297L7.49468 14.9109L7.4927 14.8899L7.49028 14.8668L7.48737 14.8415L7.48394 14.814L7.47995 14.7845L7.47535 14.7528L7.4701 14.719L7.46417 14.6833L7.45751 14.6454L7.45009 14.6056L7.44187 14.5638L7.4328 14.52L7.42287 14.4744L7.41202 14.4268L7.40023 14.3774L7.38747 14.3262L7.3737 14.2732L7.35889 14.2185L7.343 14.162L7.32602 14.1039L7.30791 14.0441L7.28865 13.9828L7.26821 13.9199L7.24657 13.8555L7.2237 13.7896L7.19958 13.7223L7.17419 13.6537L7.14751 13.5837L7.11953 13.5125L7.09022 13.44L7.05958 13.3663L7.02758 13.2915L6.99422 13.2156L6.95948 13.1387L6.92335 13.0608L6.88583 12.982L6.84691 12.9023L6.80658 12.8217L6.76485 12.7404L6.72169 12.6584L6.67713 12.5756L6.63115 12.4923L6.58376 12.4084L6.53496 12.324L6.48476 12.2392L6.43316 12.1539L6.38017 12.0683L6.3258 11.9824L6.27007 11.8962L6.21298 11.8099L6.15454 11.7234L6.09478 11.6368L6.03371 11.5502L5.97135 11.4636L5.90772 11.3771L5.84283 11.2907L5.77671 11.2045L5.70939 11.1185L5.64089 11.0328L5.57124 10.9474L5.50046 10.8624L5.42858 10.7778L5.35564 10.6936L5.28166 10.61L5.20668 10.5269L5.13074 10.4445L5.05386 10.3626L4.97609 10.2815L4.89745 10.2011L4.818 10.1214L4.73777 10.0426L4.6568 9.9646L4.57512 9.88751L4.4928 9.81134L4.40986 9.73612L4.32636 9.6619L4.24233 9.58871L4.15783 9.51658L4.0729 9.44553L3.98758 9.37561L3.90194 9.30683L3.816 9.23922L3.72984 9.17282L3.64349 9.10763L3.557 9.0437L3.47043 8.98103L3.38383 8.91965L3.29725 8.85957L3.21075 8.80082L3.12436 8.74341L3.03816 8.68735L2.95219 8.63265L2.8665 8.57933L2.78114 8.5274L2.69618 8.47687L2.61167 8.42773L2.52765 8.38L2.44418 8.33369L2.36132 8.28878L2.27911 8.24529L2.19762 8.20322L2.11689 8.16255L2.03697 8.1233L1.95792 8.08544L1.8798 8.04898L1.80264 8.01391L1.7265 7.98022L1.65144 7.9479L1.5775 7.91693L1.50472 7.88731L1.43317 7.85901L1.36289 7.83202L1.29392 7.80633L1.22631 7.78191L1.1601 7.75874L1.09535 7.73681L1.03209 7.71608L0.970372 7.69654L0.910231 7.67816L0.851711 7.66091L0.794852 7.64477L0.739692 7.6297L0.686269 7.61568L0.634621 7.60268L0.584781 7.59066L0.536786 7.5796L0.490667 7.56945L0.446456 7.56018L0.404185 7.55176L0.363883 7.54415L0.325577 7.53731L0.289293 7.53121L0.255058 7.5258L0.222895 7.52105L0.192826 7.51691L0.164872 7.51335L0.139053 7.51033L0.115387 7.5078L0.0938896 7.50571L0.0745766 7.50403L0.0574614 7.50272L0.0425558 7.50172L0.0298703 7.501L0.0194138 7.50051L0.0111935 7.50021L0.00521528 7.50005L0.00148323 7.49998L0 7.49997L0.000766622 7.49997L0.00378256 7.49992L0.0090457 7.4998L0.0165524 7.49955L0.0262973 7.49912L0.0382737 7.49848L0.0524732 7.49758L0.0688858 7.49637L0.0875001 7.49481L0.108303 7.49286L0.13128 7.49047L0.156415 7.48761L0.183691 7.48422L0.213089 7.48028L0.244587 7.47573L0.278165 7.47053L0.313798 7.46465L0.351463 7.45805L0.391133 7.45069L0.43278 7.44254L0.476376 7.43354L0.52189 7.42368L0.569291 7.41291L0.618547 7.40119L0.669623 7.38851L0.722485 7.37482L0.777096 7.36009L0.833418 7.34429L0.891413 7.3274L0.951042 7.30938L1.01226 7.29021L1.07504 7.26987L1.13932 7.24832L1.20506 7.22555L1.27223 7.20153L1.34077 7.17624L1.41064 7.14967L1.4818 7.12179L1.55419 7.09259L1.62776 7.06205L1.70247 7.03016L1.77827 6.99691L1.85511 6.96228L1.93294 6.92626L2.0117 6.88886L2.09134 6.85005L2.17182 6.80983L2.25307 6.7682L2.33506 6.72517L2.41772 6.68071L2.501 6.63485L2.58485 6.58757L2.66921 6.53888L2.75404 6.48879L2.83927 6.4373L2.92486 6.38442L3.01075 6.33017L3.09688 6.27454L3.18321 6.21756L3.26969 6.15923L3.35625 6.09957L3.44285 6.0386L3.52943 5.97634L3.61595 5.91281L3.70235 5.84802L3.78858 5.782L3.87459 5.71478L3.96034 5.64637L4.04576 5.57681L4.13082 5.50612L4.21546 5.43433L4.29965 5.36147L4.38332 5.28757L4.46645 5.21267L4.54897 5.1368L4.63085 5.05999L4.71205 4.98229L4.79253 4.90372L4.87223 4.82433L4.95113 4.74416L5.02918 4.66325L5.10635 4.58163L5.1826 4.49935L5.25789 4.41646L5.33219 4.333L5.40546 4.24902L5.47768 4.16455L5.54881 4.07965L5.61883 3.99436L5.6877 3.90874L5.7554 3.82283L5.8219 3.73668L5.88718 3.65034L5.95122 3.56387L6.01399 3.4773L6.07547 3.3907L6.13565 3.30412L6.19451 3.2176L6.25203 3.13121L6.3082 3.04499L6.363 2.95899L6.41643 2.87328L6.46847 2.7879L6.51912 2.70291L6.56837 2.61835L6.61621 2.53429L6.66264 2.45078L6.70765 2.36786L6.75125 2.2856L6.79344 2.20405L6.83422 2.12326L6.87359 2.04327L6.91155 1.96416L6.94812 1.88595L6.9833 1.80872L7.0171 1.7325L7.04953 1.65734L7.08061 1.58331L7.11034 1.51044L7.13874 1.43879L7.16583 1.36841L7.19163 1.29933L7.21615 1.23161L7.23942 1.16529L7.26145 1.10042L7.28227 1.03704L7.3019 0.975197L7.32038 0.914929L7.33771 0.856278L7.35394 0.799285L7.36909 0.743988L7.38319 0.690425L7.39628 0.638634L7.40837 0.588649L7.41951 0.540505L7.42974 0.494235L7.43907 0.449872L7.44756 0.407445L7.45523 0.366985L7.46213 0.328518L7.46829 0.292073L7.47375 0.257674L7.47855 0.225345L7.48273 0.195108L7.48634 0.166985L7.48941 0.140995L7.49198 0.117157L7.4941 0.0954862L7.49581 0.0759987L7.49715 0.058708L7.49817 0.043626L7.49891 0.0307634L7.49942 0.020129L7.49973 0.0117304L7.4999 0.00557342L7.49997 0.00166237L7.49999 0L7.49999 0.00058746L7.50003 0.00342434L7.50014 0.00850867L7.50038 0.0158369L7.50079 0.0254038L7.50142 0.0372028L7.5023 0.0512256L7.50348 0.0674625L7.50501 0.0859019L7.50693 0.106531L7.50928 0.129336L7.5121 0.1543L7.51545 0.181406L7.51935 0.210635L7.52385 0.241967L7.52899 0.27538L7.53481 0.310851L7.54135 0.348355L7.54865 0.387866L7.55674 0.429357L7.56567 0.472799L7.57546 0.518162L7.58616 0.565414L7.59779 0.614524L7.6104 0.665456L7.62401 0.718177L7.63866 0.77265L7.65437 0.828838L7.67117 0.886701L7.6891 0.946202L7.70817 1.0073L7.72842 1.06995L7.74987 1.13411L7.77255 1.19974L7.79647 1.2668L7.82165 1.33523L7.84812 1.405L7.8759 1.47605L7.90499 1.54835L7.93542 1.62183L7.9672 1.69645L8.00035 1.77217L8.03487 1.84892L8.07077 1.92667L8.10807 2.00536L8.14677 2.08494L8.18687 2.16535L8.22838 2.24655L8.27131 2.32848L8.31565 2.41108L8.3614 2.49432L8.40857 2.57812L8.45715 2.66245L8.50713 2.74724L8.5585 2.83244L8.61127 2.918L8.66542 3.00387L8.72093 3.08999L8.77781 3.17631L8.83603 3.26277L8.89558 3.34933L8.95645 3.43593L9.0186 3.52251L9.08204 3.60904L9.14673 3.69545L9.21265 3.7817L9.27978 3.86773L9.34809 3.95349L9.41756 4.03895L9.48817 4.12404L9.55987 4.20872L9.63264 4.29294L9.70646 4.37666L9.78128 4.45982L9.85707 4.5424L9.93381 4.62434L10.0114 4.70559L10.0899 4.78612L10.1693 4.86589L10.2494 4.94486L10.3302 5.02298L10.4118 5.10022L10.494 5.17654L10.5769 5.25191L10.6603 5.32629L10.7442 5.39965L10.8287 5.47195L10.9135 5.54317L10.9988 5.61328L11.0844 5.68224L11.1703 5.75003L11.2564 5.81663L11.3427 5.88201L11.4292 5.94615L11.5157 6.00902L11.6023 6.0706L11.6889 6.13089L11.7755 6.18985L11.8619 6.24748L11.9481 6.30376L12.0341 6.35867L12.1198 6.41221L12.2053 6.46436L12.2903 6.51512L12.3749 6.56448L12.459 6.61243L12.5425 6.65897L12.6255 6.7041L12.7078 6.74782L12.7894 6.79012L12.8703 6.83101L12.9503 6.87049L13.0295 6.90856L13.1078 6.94524L13.1851 6.98053L13.2614 7.01444L13.3367 7.04699L13.4108 7.07817L13.4837 7.10801L13.5555 7.13651L13.626 7.16371L13.6952 7.18961L13.763 7.21423L13.8294 7.23759L13.8944 7.25972L13.9579 7.28064L14.0199 7.30037L14.0803 7.31893L14.1391 7.33636L14.1962 7.35268L14.2516 7.36791L14.3053 7.38209L14.3572 7.39526L14.4074 7.40743L14.4557 7.41865L14.5021 7.42894L14.5466 7.43835L14.5892 7.4469L14.6298 7.45464L14.6684 7.46159L14.705 7.46781L14.7396 7.47333L14.7721 7.47818L14.8025 7.48241L14.8308 7.48606L14.857 7.48917L14.881 7.49177L14.9028 7.49393L14.9225 7.49567L14.9399 7.49704L14.9552 7.49808L14.9682 7.49884L14.979 7.49937L14.9876 7.4997L14.994 7.49988L14.998 7.49995L14.9999 7.49997L15 7.49997Z" fill="#D9AF78"/>
</svg>
