<svg width="25" height="25" viewBox="0 0 25 25" fill="none" xmlns="http://www.w3.org/2000/svg">
<path d="M15.0944 2.34375C16.0507 2.34375 16.9709 2.69442 17.683 3.32455L17.8566 3.48786L20.4704 6.10174C21.1466 6.77795 21.5493 7.67656 21.6073 8.62564L21.6145 8.86386V18.75C21.6145 20.8378 19.9767 22.543 17.9158 22.6508L17.7083 22.6562H13.5416C13.1102 22.6562 12.7604 22.3065 12.7604 21.875C12.7604 21.4795 13.0543 21.1526 13.4356 21.1009L13.5416 21.0938H17.7083C18.9488 21.0938 19.9642 20.13 20.0466 18.9105L20.052 18.75V8.86386C20.052 8.31134 19.8569 7.77892 19.5049 7.35873L19.3656 7.20659L16.7517 4.59272C16.361 4.20202 15.8466 3.9635 15.3005 3.91532L15.0944 3.90625H7.29163C6.05114 3.90625 5.03575 4.86996 4.95328 6.08953L4.94788 6.25V13.5417C4.94788 13.9731 4.5981 14.3229 4.16663 14.3229C3.77111 14.3229 3.44424 14.029 3.39251 13.6477L3.38538 13.5417V6.25C3.38538 4.16223 5.02325 2.45701 7.08417 2.34916L7.29163 2.34375H15.0944Z" fill="white"/>
<path d="M15.1041 2.34375C15.4996 2.34375 15.8265 2.63766 15.8782 3.01899L15.8854 3.125V6.77083C15.8854 7.44501 16.3977 7.99952 17.0543 8.06619L17.1875 8.07292H20.8333C21.2648 8.07292 21.6145 8.42269 21.6145 8.85417C21.6145 9.24968 21.3206 9.57655 20.9393 9.62829L20.8333 9.63542H17.1875C15.664 9.63542 14.4183 8.44614 14.3281 6.94534L14.3229 6.77083V3.125C14.3229 2.69353 14.6727 2.34375 15.1041 2.34375Z" fill="white"/>
<path d="M7.29163 15.8867C7.68714 15.8867 8.01401 16.1806 8.06574 16.562L8.07288 16.668V21.8763C8.07288 22.3078 7.7231 22.6576 7.29163 22.6576C6.89611 22.6576 6.56924 22.3636 6.51751 21.9823L6.51038 21.8763V16.668C6.51038 16.2365 6.86015 15.8867 7.29163 15.8867Z" fill="white"/>
<path d="M8.82253 19.2405C9.12763 18.9354 9.62229 18.9354 9.92739 19.2405C10.2047 19.5179 10.23 19.9519 10.003 20.2578L9.92739 20.3454L7.84405 22.4287C7.53896 22.7338 7.0443 22.7338 6.7392 22.4287C6.46184 22.1514 6.43662 21.7173 6.66355 21.4115L6.7392 21.3239L8.82253 19.2405Z" fill="white"/>
<path d="M4.65595 19.2405C4.93331 18.9632 5.36733 18.938 5.67318 19.1649L5.7608 19.2405L7.84413 21.3239C8.14923 21.629 8.14923 22.1236 7.84413 22.4287C7.56677 22.7061 7.13275 22.7313 6.8269 22.5044L6.73928 22.4287L4.65595 20.3454C4.35085 20.0403 4.35085 19.5456 4.65595 19.2405Z" fill="white"/>
</svg>
