<svg width="61" height="61" viewBox="0 0 61 61" fill="none" xmlns="http://www.w3.org/2000/svg">
<path fill-rule="evenodd" clip-rule="evenodd" d="M37.5155 47.5224H22.5093C16.9908 47.5062 12.5213 43.0367 12.5051 37.5182V22.512C12.5213 16.9935 16.9908 12.524 22.5093 12.5078H37.5155C43.034 12.524 47.5036 16.9935 47.5197 22.512V37.5182C47.5036 43.0367 43.034 47.5062 37.5155 47.5224Z" stroke="#D9AF78" stroke-width="1.5" stroke-linecap="round" stroke-linejoin="round"/>
<path d="M33.4761 12.506V7.50391" stroke="#D9AF78" stroke-width="1.5" stroke-linecap="round" stroke-linejoin="round"/>
<path d="M40.4014 12.9341V7.50391" stroke="#D9AF78" stroke-width="1.5" stroke-linecap="round" stroke-linejoin="round"/>
<path d="M19.6236 12.9332V7.50391" stroke="#D9AF78" stroke-width="1.5" stroke-linecap="round" stroke-linejoin="round"/>
<path d="M26.5501 12.506V7.50391" stroke="#D9AF78" stroke-width="1.5" stroke-linecap="round" stroke-linejoin="round"/>
<path d="M33.4761 52.5216V47.5195" stroke="#D9AF78" stroke-width="1.5" stroke-linecap="round" stroke-linejoin="round"/>
<path d="M40.4014 52.5246V47.0938" stroke="#D9AF78" stroke-width="1.5" stroke-linecap="round" stroke-linejoin="round"/>
<path d="M19.6236 52.5243V47.0938" stroke="#D9AF78" stroke-width="1.5" stroke-linecap="round" stroke-linejoin="round"/>
<path d="M26.5501 52.5216V47.5195" stroke="#D9AF78" stroke-width="1.5" stroke-linecap="round" stroke-linejoin="round"/>
<path d="M47.5198 33.4771H52.5219" stroke="#D9AF78" stroke-width="1.5" stroke-linecap="round" stroke-linejoin="round"/>
<path d="M47.0918 40.399H52.522" stroke="#D9AF78" stroke-width="1.5" stroke-linecap="round" stroke-linejoin="round"/>
<path d="M47.0925 19.6216H52.5218" stroke="#D9AF78" stroke-width="1.5" stroke-linecap="round" stroke-linejoin="round"/>
<path d="M47.5198 26.5474H52.5219" stroke="#D9AF78" stroke-width="1.5" stroke-linecap="round" stroke-linejoin="round"/>
<path d="M7.50317 33.4771H12.5053" stroke="#D9AF78" stroke-width="1.5" stroke-linecap="round" stroke-linejoin="round"/>
<path d="M7.50317 40.399H12.934" stroke="#D9AF78" stroke-width="1.5" stroke-linecap="round" stroke-linejoin="round"/>
<path d="M7.50317 19.6216H12.9337" stroke="#D9AF78" stroke-width="1.5" stroke-linecap="round" stroke-linejoin="round"/>
<path d="M7.50317 26.5474H12.5053" stroke="#D9AF78" stroke-width="1.5" stroke-linecap="round" stroke-linejoin="round"/>
<path fill-rule="evenodd" clip-rule="evenodd" d="M35.0146 40.0161H25.0104C22.2512 40.0081 20.0164 37.7733 20.0083 35.0141V25.0099C20.0164 22.2507 22.2512 20.0159 25.0104 20.0078H35.0146C37.7738 20.0159 40.0086 22.2507 40.0166 25.0099V35.0141C40.0086 37.7733 37.7738 40.0081 35.0146 40.0161Z" stroke="#D9AF78" stroke-width="1.5" stroke-linecap="round" stroke-linejoin="round"/>
</svg>
