<svg width="60" height="60" viewBox="0 0 60 60" fill="none" xmlns="http://www.w3.org/2000/svg">
<path d="M11.0071 11.0547H16.9771V17.0297" stroke="#D9AF78" stroke-width="1.5" stroke-linecap="round" stroke-linejoin="round"/>
<path d="M16.9771 11.6633C7.43703 18.3836 4.48853 31.2097 10.1362 41.4214C15.7839 51.6331 28.2154 55.9533 38.9786 51.4446C49.7418 46.936 55.3828 35.0455 52.0662 23.8573C48.7496 12.6691 37.5399 5.7737 26.0584 7.85918" stroke="#D9AF78" stroke-width="1.5" stroke-linecap="round" stroke-linejoin="round"/>
<path fill-rule="evenodd" clip-rule="evenodd" d="M29.0522 20.9191C24.0368 20.9191 19.9709 24.9849 19.9709 30.0004C19.9709 35.0158 24.0368 39.0816 29.0522 39.0816C36.4503 39.0816 38.2661 29.9979 42.5053 27.5769C39.3447 23.3327 34.3436 20.8577 29.0522 20.9191V20.9191Z" stroke="#D9AF78" stroke-width="1.5" stroke-linecap="round" stroke-linejoin="round"/>
<path d="M30.1477 29.0156C25.0692 29.8652 20.5935 32.839 17.8425 37.1915" stroke="#D9AF78" stroke-width="1.5" stroke-linecap="round" stroke-linejoin="round"/>
</svg>
