<svg width="60" height="60" viewBox="0 0 60 60" fill="none" xmlns="http://www.w3.org/2000/svg">
<path d="M29.9999 27.9154V25.832" stroke="#D9AF78" stroke-width="1.5" stroke-linecap="round" stroke-linejoin="round"/>
<path d="M29.9999 40.418V42.5013" stroke="#D9AF78" stroke-width="1.5" stroke-linecap="round" stroke-linejoin="round"/>
<path d="M26.3833 38.9266C26.9228 39.8099 27.8437 40.4203 28.9583 40.4203H29.9999H31.2416C32.8583 40.4203 34.1666 39.1099 34.1666 37.4953C34.1666 36.1536 33.252 34.9849 31.952 34.6557L28.0458 33.6745C26.7478 33.3495 25.8333 32.1807 25.8333 30.8391C25.8333 29.2224 27.1437 27.9141 28.7583 27.9141H29.9999H31.0416C32.152 27.9141 33.0728 28.5224 33.6103 29.4036" stroke="#D9AF78" stroke-width="1.5" stroke-linecap="round" stroke-linejoin="round"/>
<path fill-rule="evenodd" clip-rule="evenodd" d="M44.5833 47.7083H15.4167C13.1146 47.7083 11.25 45.8437 11.25 43.5417V24.7917C11.25 22.4896 13.1146 20.625 15.4167 20.625H44.5833C46.8854 20.625 48.75 22.4896 48.75 24.7917V43.5417C48.75 45.8437 46.8854 47.7083 44.5833 47.7083Z" stroke="#D9AF78" stroke-width="1.5" stroke-linecap="round" stroke-linejoin="round"/>
<path d="M38.6959 20.6263V16.4596C38.6959 14.1576 36.8313 12.293 34.5292 12.293H25.4709C23.1688 12.293 21.3042 14.1576 21.3042 16.4596V20.6263" stroke="#D9AF78" stroke-width="1.5" stroke-linecap="round" stroke-linejoin="round"/>
</svg>
