<svg width="60" height="60" viewBox="0 0 60 60" fill="none" xmlns="http://www.w3.org/2000/svg">
<path fill-rule="evenodd" clip-rule="evenodd" d="M46.6667 48.75V48.75C48.9687 48.75 50.8333 46.8854 50.8333 44.5833V15.4167C50.8333 13.1146 48.9687 11.25 46.6667 11.25V11.25C44.3646 11.25 42.5 13.1146 42.5 15.4167V44.5833C42.5 46.8854 44.3646 48.75 46.6667 48.75Z" stroke="#D9AF78" stroke-width="1.5" stroke-linecap="round" stroke-linejoin="round"/>
<path fill-rule="evenodd" clip-rule="evenodd" d="M29.9999 48.7482V48.7482C32.302 48.7482 34.1666 46.8836 34.1666 44.5815V27.2565C34.1666 24.9544 32.302 23.0898 29.9999 23.0898V23.0898C27.6978 23.0898 25.8333 24.9544 25.8333 27.2565V44.5815C25.8333 46.8836 27.6978 48.7482 29.9999 48.7482Z" stroke="#D9AF78" stroke-width="1.5" stroke-linecap="round" stroke-linejoin="round"/>
<path fill-rule="evenodd" clip-rule="evenodd" d="M13.3334 48.7503V48.7503C15.6355 48.7503 17.5001 46.8857 17.5001 44.5836V39.1003C17.5001 36.7982 15.6355 34.9336 13.3334 34.9336V34.9336C11.0313 34.9336 9.16675 36.7982 9.16675 39.1003V44.5836C9.16675 46.8857 11.0313 48.7503 13.3334 48.7503Z" stroke="#D9AF78" stroke-width="1.5" stroke-linecap="round" stroke-linejoin="round"/>
</svg>
