<svg width="25" height="25" viewBox="0 0 25 25" fill="none" xmlns="http://www.w3.org/2000/svg">
<path d="M11.4017 2.13502L11.4068 2.14264C11.7662 2.10516 12.1309 2.08594 12.5001 2.08594C18.2532 2.08594 22.9168 6.74964 22.9168 12.5026C22.9168 18.2555 18.2532 22.9193 12.5001 22.9193C9.15716 22.9193 6.18197 21.3445 4.27595 18.8962L4.27329 18.8957L4.27378 18.8935C2.90104 17.1291 2.0835 14.9113 2.0835 12.5026C2.0835 7.12556 6.15763 2.70007 11.3873 2.14468L11.4017 2.13502ZM12.5001 3.64844C12.4447 3.64844 12.3894 3.64895 12.3342 3.64996C12.4619 3.90433 12.599 4.205 12.7235 4.53572C13.0848 5.49585 13.417 6.91188 12.8275 8.16705C12.2832 9.32623 11.3435 9.62614 10.6504 9.80522L10.5622 9.82797C9.87849 10.0042 9.61559 10.072 9.42382 10.3631C9.2478 10.6303 9.27446 10.9697 9.48776 11.6648C9.50276 11.7136 9.51897 11.7653 9.53589 11.8192C9.62037 12.0883 9.72221 12.4128 9.7753 12.7179C9.84134 13.0975 9.86 13.5801 9.61691 14.0466C9.37578 14.5093 9.05615 14.8247 8.6785 15.0304C8.32377 15.2238 7.95635 15.297 7.68146 15.3457L7.58462 15.3628C7.0483 15.4572 6.79175 15.5024 6.54188 15.7701C6.34792 15.9778 6.22274 16.3448 6.14963 16.8931C6.11987 17.1163 6.10197 17.3375 6.08347 17.5663L6.07354 17.6882C6.05273 17.9406 6.02692 18.2311 5.97017 18.4805L5.96986 18.482C7.58858 20.2489 9.91499 21.3568 12.5001 21.3568C14.1428 21.3568 15.6811 20.9094 16.9997 20.1299C16.8972 20.0255 16.7861 19.903 16.6764 19.7649C16.3227 19.3197 15.8589 18.5527 16.0197 17.6474C16.097 17.2121 16.3303 16.8476 16.5559 16.5681C16.7857 16.2833 17.063 16.0202 17.3055 15.797C17.3631 15.744 17.4183 15.6935 17.4712 15.6452C17.6568 15.4757 17.8146 15.3317 17.9496 15.1903C18.1295 15.0017 18.1687 14.9167 18.1708 14.9123C18.2415 14.6782 18.1548 14.5124 18.0602 14.4393C18.0127 14.4026 17.9491 14.3759 17.8625 14.3753C17.7752 14.3746 17.6337 14.4007 17.4447 14.5205C17.2263 14.6589 16.9085 14.7443 16.5741 14.6097C16.2957 14.4975 16.1413 14.2828 16.0672 14.1603C15.9173 13.9125 15.8331 13.5914 15.7783 13.3558C15.736 13.1742 15.6956 12.9679 15.6588 12.7798C15.644 12.7045 15.6298 12.632 15.6164 12.5652C15.5637 12.305 15.5193 12.1191 15.4767 12.0035C15.4761 12.0021 15.4708 11.9894 15.4566 11.9635C15.4413 11.9354 15.4196 11.8995 15.3899 11.8544C15.3295 11.7624 15.2506 11.6544 15.1527 11.5248C15.1172 11.4777 15.079 11.4276 15.039 11.3751C14.8712 11.1551 14.6713 10.893 14.5012 10.6339C14.2972 10.323 14.0667 9.91685 13.9938 9.48369C13.9552 9.25413 13.9558 8.989 14.0511 8.71968C14.1486 8.44389 14.3267 8.21707 14.558 8.04365C15.0615 7.66597 15.8012 6.82222 16.4572 6.00298C16.7568 5.62889 17.0245 5.2784 17.2238 5.01238C15.8568 4.14845 14.2369 3.64844 12.5001 3.64844ZM18.4662 5.96011C18.2604 6.23454 17.9853 6.59442 17.6768 6.97966C17.05 7.76236 16.2192 8.7347 15.5419 9.25822C15.5684 9.36122 15.6464 9.53101 15.8075 9.77654C15.9441 9.98467 16.1001 10.1895 16.2648 10.4057C16.3092 10.4639 16.3545 10.5233 16.3999 10.5834C16.5795 10.8214 16.8283 11.1533 16.9424 11.4624C17.0322 11.7056 17.0967 12.0026 17.1479 12.2555C17.1659 12.3448 17.1825 12.4301 17.1986 12.5122C17.2251 12.648 17.25 12.7751 17.2766 12.897C17.9034 12.7181 18.5284 12.8261 19.0161 13.2032C19.65 13.6934 19.9147 14.5431 19.6665 15.3643C19.5526 15.741 19.2873 16.0517 19.0798 16.2692C18.9038 16.4535 18.6929 16.646 18.5015 16.8205C18.4541 16.8638 18.4076 16.9061 18.3636 16.9467C18.124 17.1672 17.9225 17.3626 17.772 17.5492C17.6172 17.741 17.5688 17.8609 17.5582 17.9207C17.5176 18.1483 17.6285 18.4515 17.8998 18.793C18.0228 18.9479 18.1539 19.0784 18.2556 19.1708C18.2675 19.1817 18.2791 19.192 18.29 19.2016C20.1668 17.578 21.3543 15.179 21.3543 12.5026C21.3543 9.91094 20.2409 7.57933 18.4662 5.96011ZM3.646 12.5026C3.646 13.9593 3.99774 15.3336 4.62091 16.5457C4.70934 15.9651 4.89386 15.2457 5.39968 14.7039C6.0245 14.0345 6.79094 13.909 7.27274 13.8301C7.32094 13.8222 7.36658 13.8147 7.40865 13.8073C7.66665 13.7615 7.81586 13.721 7.93099 13.6583C8.02317 13.6081 8.12662 13.5253 8.23128 13.3245C8.24677 13.2948 8.27536 13.2125 8.23592 12.9857C8.20215 12.7917 8.13883 12.5886 8.05597 12.323C8.03643 12.2603 8.01559 12.1935 7.99401 12.1231C7.80114 11.4947 7.49288 10.4542 8.11895 9.50364C8.66233 8.67869 9.53631 8.46779 10.0911 8.33392C10.1513 8.3194 10.2077 8.30579 10.2595 8.2924C10.8459 8.1409 11.1796 8.00046 11.4133 7.50288C11.721 6.84768 11.5886 5.95606 11.2611 5.08614C11.1059 4.67366 10.9237 4.3112 10.7794 4.05107C10.7341 3.96941 10.6931 3.89859 10.6582 3.8403C6.65223 4.68795 3.646 8.2442 3.646 12.5026Z" fill="#D9AF78"/>
</svg>
