<svg width="180" height="58" viewBox="0 0 180 58" fill="none" xmlns="http://www.w3.org/2000/svg">
<g clip-path="url(#clip0_531_568)">
<path d="M66.2043 22.0238C65.7354 22.043 65.3952 22.095 65.18 22.1759C64.9686 22.2568 64.8226 22.4108 64.7438 22.6362C64.663 22.8576 64.6227 23.2139 64.6227 23.705V33.4034C64.6227 33.8945 64.6611 34.2508 64.7438 34.4723C64.8226 34.6976 64.9686 34.8497 65.18 34.9325C65.3952 35.0134 65.7354 35.0654 66.2043 35.0847V35.4756C65.6086 35.4371 64.7841 35.4178 63.729 35.4178C62.6106 35.4178 61.7784 35.4371 61.2307 35.4756V35.0847C61.7016 35.0654 62.0436 35.0134 62.255 34.9325C62.4664 34.8517 62.6125 34.6976 62.6951 34.4723C62.7739 34.2508 62.8124 33.8945 62.8124 33.4034V23.705C62.8124 23.2139 62.7739 22.8576 62.6951 22.6362C62.6144 22.4108 62.4664 22.2587 62.255 22.1759C62.0436 22.095 61.7016 22.043 61.2307 22.0238V21.6328C61.7707 21.6713 62.6029 21.6906 63.729 21.6906C64.7822 21.6906 65.6086 21.6713 66.2043 21.6328V22.0238ZM79.7049 23.9823C79.2533 24.0016 78.9189 24.0671 78.6979 24.1788C78.4788 24.2904 78.3309 24.4715 78.2463 24.7257C78.1656 24.9799 78.1233 25.3535 78.1233 25.8523V35.57H77.6774L69.873 24.7449V33.2032C69.873 33.7058 69.9192 34.0833 70.0076 34.3375C70.096 34.5917 70.2651 34.7766 70.5091 34.8882C70.7532 34.9999 71.1337 35.0635 71.6468 35.0847V35.4756C71.1818 35.4371 70.5188 35.4178 69.6578 35.4178C68.8814 35.4178 68.2799 35.4371 67.8475 35.4756V35.0847C68.2991 35.0654 68.6354 34.9999 68.8526 34.8882C69.0736 34.7766 69.2235 34.5917 69.3042 34.3375C69.3887 34.0833 69.4272 33.7058 69.4272 33.2032V25.6597C69.4272 25.1705 69.3887 24.8162 69.3099 24.5909C69.2292 24.3694 69.0812 24.2153 68.8699 24.1345C68.6585 24.0497 68.3164 23.9996 67.8455 23.9804V23.5894C68.2722 23.626 68.8737 23.6453 69.6559 23.6453C70.3708 23.6453 70.9723 23.626 71.4547 23.5894L77.6794 32.2672V25.8504C77.6794 25.3477 77.6332 24.9703 77.5487 24.7199C77.4641 24.4696 77.295 24.2866 77.0471 24.1749C76.8011 24.0632 76.4206 23.9996 75.9055 23.9785V23.5875C76.3668 23.6241 77.0298 23.6434 77.8946 23.6434C78.6749 23.6434 79.2802 23.6241 79.7049 23.5875V23.9785V23.9823ZM91.1646 23.6472C91.7046 23.6472 92.1409 23.628 92.4791 23.5914V23.9823C92.2254 24.0439 92.0102 24.146 91.8353 24.2847C91.6604 24.4253 91.5009 24.6159 91.351 24.8643C91.2011 25.1089 91.032 25.4517 90.8398 25.8908L86.5638 35.5681H86.2487L81.6863 25.2283C81.3346 24.4195 80.8868 24.0035 80.3391 23.9804V23.5894C80.8619 23.626 81.5556 23.6453 82.4262 23.6453C83.5447 23.6453 84.3768 23.626 84.9245 23.5894V23.9804C84.4326 23.9996 84.0789 24.0593 83.8618 24.1595C83.6427 24.2635 83.5332 24.4387 83.5332 24.6949C83.5332 24.9202 83.6177 25.2264 83.7907 25.6231L87.1442 33.2128L90.0615 26.7093C90.3767 25.9987 90.5362 25.4421 90.5362 25.0415C90.5362 24.6775 90.4093 24.4156 90.1557 24.2519C89.902 24.0902 89.5176 24.0016 89.0045 23.9823V23.5914C89.3908 23.628 90.1095 23.6472 91.1665 23.6472H91.1646ZM102.832 33.1646C102.832 33.8522 102.878 34.6206 102.966 35.4756C102.121 35.4371 100.697 35.4178 98.6904 35.4178C96.2881 35.4178 94.4701 35.4371 93.2305 35.4756V35.0847C93.7014 35.0654 94.0435 35.0134 94.2549 34.9325C94.4663 34.8517 94.6123 34.6976 94.6949 34.4723C94.7737 34.2508 94.8122 33.8945 94.8122 33.4034V25.6616C94.8122 25.1725 94.7737 24.8181 94.6949 24.5928C94.6142 24.3713 94.4663 24.2173 94.2549 24.1364C94.0435 24.0516 93.7014 24.0016 93.2305 23.9823V23.5914C94.4701 23.628 96.2881 23.6472 98.6904 23.6472C100.512 23.6472 101.809 23.628 102.576 23.5914C102.488 24.3733 102.442 25.0781 102.442 25.7002C102.442 26.2086 102.461 26.613 102.499 26.9134H102.052C101.98 26.1874 101.859 25.6193 101.685 25.2052C101.51 24.7912 101.258 24.4927 100.933 24.3116C100.604 24.1287 100.172 24.0382 99.632 24.0382H98.2003C97.7314 24.0382 97.3912 24.0748 97.176 24.1499C96.9646 24.2211 96.8185 24.3713 96.7397 24.5928C96.659 24.8181 96.6187 25.1725 96.6187 25.6616V29.2976H98.2387C98.6519 29.2976 98.9709 29.1936 99.1939 28.9779C99.4226 28.7661 99.5705 28.5311 99.6493 28.275C99.7243 28.015 99.7954 27.6915 99.8569 27.3044H100.307C100.26 27.8128 100.237 28.2981 100.237 28.7545L100.247 29.4902C100.247 30.0121 100.289 30.7458 100.37 31.6856H99.9145C99.8627 31.285 99.7916 30.9422 99.6993 30.663C99.6051 30.3838 99.4456 30.1507 99.2112 29.9697C98.9805 29.7848 98.6558 29.6924 98.2349 29.6924H96.6148V33.4034C96.6148 33.8945 96.6532 34.2508 96.7359 34.4684C96.8147 34.686 96.9607 34.8363 97.1721 34.9114C97.3874 34.9903 97.7275 35.025 98.1965 35.025H99.6282C100.268 35.025 100.779 34.9248 101.164 34.7149C101.544 34.5089 101.834 34.1718 102.029 33.7058C102.226 33.2359 102.363 32.5888 102.438 31.7607H102.886C102.847 32.1131 102.828 32.5792 102.828 33.1646H102.832ZM109.014 23.3141C109.414 23.3141 109.758 23.3468 110.048 23.4123C110.338 23.4797 110.579 23.5625 110.767 23.6607C110.959 23.7608 111.167 23.886 111.397 24.0382C111.699 24.223 111.924 24.3155 112.064 24.3155C112.185 24.3155 112.276 24.2462 112.341 24.1075C112.402 23.9669 112.454 23.7454 112.493 23.4489H112.939C112.877 24.1306 112.844 25.3285 112.844 27.0463H112.397C112.349 26.4474 112.201 25.8966 111.964 25.3901C111.728 24.8855 111.376 24.4753 110.917 24.1576C110.456 23.8417 109.883 23.6857 109.197 23.6857C108.738 23.6857 108.328 23.7705 107.967 23.9361C107.606 24.1056 107.323 24.3367 107.117 24.6313C106.916 24.924 106.812 25.2534 106.812 25.625C106.812 26.0333 106.916 26.3819 107.117 26.6785C107.323 26.975 107.583 27.2293 107.898 27.4449C108.217 27.6568 108.672 27.9264 109.26 28.2499C109.547 28.3963 109.758 28.5099 109.891 28.5947C110.698 29.0222 111.347 29.4054 111.839 29.7482C112.331 30.093 112.723 30.482 113.019 30.9191C113.315 31.3544 113.461 31.8609 113.461 32.4309C113.461 33.1454 113.286 33.7501 112.927 34.2489C112.573 34.7515 112.091 35.1251 111.486 35.3755C110.878 35.6258 110.202 35.7529 109.46 35.7529C108.839 35.7529 108.326 35.6875 107.925 35.5565C107.525 35.4256 107.148 35.2503 106.793 35.025C106.501 34.842 106.276 34.7477 106.126 34.7477C106.003 34.7477 105.911 34.8151 105.849 34.9537C105.784 35.0905 105.732 35.3081 105.695 35.6085H105.248C105.299 34.973 105.322 33.5402 105.322 31.3139H105.772C105.862 32.5233 106.185 33.4997 106.745 34.2431C107.304 34.9884 108.165 35.3601 109.327 35.3601C109.741 35.3601 110.131 35.2792 110.494 35.1213C110.859 34.9614 111.153 34.7169 111.386 34.3856C111.614 34.0524 111.728 33.6403 111.728 33.1435C111.728 32.7101 111.605 32.3288 111.353 31.9995C111.099 31.6663 110.767 31.3717 110.354 31.1059C109.941 30.8421 109.366 30.5166 108.62 30.1353C107.927 29.781 107.352 29.4382 106.891 29.1089C106.433 28.7834 106.059 28.3924 105.772 27.938C105.486 27.4892 105.342 26.9635 105.342 26.3646C105.342 25.7156 105.511 25.159 105.849 24.6987C106.183 24.2365 106.629 23.8918 107.185 23.6569C107.74 23.4258 108.349 23.3102 109.008 23.3102L109.014 23.3141ZM126.114 23.5914C126.02 24.4214 125.972 25.1917 125.972 25.8927C125.972 26.5668 125.991 27.1021 126.03 27.495H125.582C125.507 26.5822 125.384 25.8889 125.215 25.4093C125.05 24.9279 124.775 24.5793 124.394 24.3636C124.018 24.146 123.478 24.0382 122.772 24.0382H121.523V33.2051C121.523 33.7462 121.575 34.141 121.677 34.3914C121.777 34.6456 121.963 34.817 122.23 34.9114C122.498 35.0057 122.92 35.0654 123.495 35.0847V35.4756C122.822 35.4371 121.869 35.4178 120.63 35.4178C119.332 35.4178 118.37 35.4371 117.743 35.4756V35.0847C118.321 35.0654 118.744 35.0057 119.011 34.9114C119.279 34.817 119.459 34.6437 119.565 34.3914C119.665 34.141 119.715 33.7462 119.715 33.2051V24.0382H118.469C117.764 24.0382 117.224 24.146 116.849 24.3636C116.473 24.5793 116.2 24.9298 116.031 25.4132C115.858 25.8947 115.735 26.5899 115.656 27.495H115.21C115.247 27.081 115.266 26.5475 115.266 25.8927C115.266 25.211 115.224 24.4426 115.133 23.5914C116.213 23.628 118.047 23.6472 120.631 23.6472C123.211 23.6472 125.038 23.628 126.116 23.5914H126.114ZM142.559 23.9823C142.088 24.0016 141.746 24.0497 141.535 24.1364C141.32 24.2173 141.174 24.3713 141.097 24.5928C141.016 24.8181 140.976 25.1725 140.976 25.6616V33.4034C140.976 33.8945 141.014 34.2508 141.097 34.4723C141.175 34.6976 141.322 34.8497 141.535 34.9325C141.746 35.0134 142.088 35.0654 142.559 35.0847V35.4756C141.948 35.4371 141.122 35.4178 140.082 35.4178C138.963 35.4178 138.131 35.4371 137.584 35.4756V35.0847C138.054 35.0654 138.393 35.0134 138.604 34.9325C138.812 34.8517 138.958 34.6976 139.037 34.4723C139.115 34.2508 139.156 33.8945 139.156 33.4034V24.82L134.457 35.57H134.144L129.618 24.8393V33.2032C129.618 33.7058 129.664 34.0833 129.752 34.3375C129.841 34.5917 130.01 34.7766 130.254 34.8882C130.498 34.9999 130.879 35.0635 131.392 35.0847V35.4756C130.927 35.4371 130.264 35.4178 129.403 35.4178C128.626 35.4178 128.025 35.4371 127.592 35.4756V35.0847C128.044 35.0654 128.38 34.9999 128.597 34.8882C128.818 34.7766 128.968 34.5917 129.049 34.3375C129.134 34.0833 129.172 33.7058 129.172 33.2032V25.6597C129.172 25.1705 129.134 24.8162 129.055 24.5909C128.974 24.3694 128.826 24.2153 128.615 24.1345C128.403 24.0497 128.061 23.9996 127.59 23.9804V23.5894C128.017 23.626 128.618 23.6453 129.401 23.6453C130.016 23.6453 130.571 23.626 131.065 23.5894L134.974 33.1146L139.156 23.6453H140.08C141.12 23.6453 141.946 23.626 142.557 23.5894V23.9804L142.559 23.9823ZM153.798 33.1646C153.798 33.8522 153.844 34.6206 153.932 35.4756C153.087 35.4371 151.663 35.4178 149.656 35.4178C147.254 35.4178 145.436 35.4371 144.197 35.4756V35.0847C144.667 35.0654 145.009 35.0134 145.221 34.9325C145.432 34.8517 145.578 34.6976 145.661 34.4723C145.74 34.2508 145.778 33.8945 145.778 33.4034V25.6616C145.778 25.1725 145.74 24.8181 145.661 24.5928C145.58 24.3713 145.432 24.2173 145.221 24.1364C145.009 24.0516 144.667 24.0016 144.197 23.9823V23.5914C145.436 23.628 147.254 23.6472 149.656 23.6472C151.478 23.6472 152.775 23.628 153.542 23.5914C153.454 24.3733 153.408 25.0781 153.408 25.7002C153.408 26.2086 153.427 26.613 153.465 26.9134H153.018C152.946 26.1874 152.825 25.6193 152.651 25.2052C152.476 24.7912 152.224 24.4927 151.899 24.3116C151.57 24.1287 151.138 24.0382 150.598 24.0382H149.166C148.697 24.0382 148.357 24.0748 148.142 24.1499C147.931 24.2211 147.785 24.3713 147.706 24.5928C147.625 24.8181 147.585 25.1725 147.585 25.6616V29.2976H149.205C149.618 29.2976 149.937 29.1936 150.16 28.9779C150.389 28.7661 150.537 28.5311 150.615 28.275C150.69 28.015 150.761 27.6915 150.823 27.3044H151.273C151.226 27.8128 151.203 28.2981 151.203 28.7545L151.213 29.4902C151.213 30.0121 151.255 30.7458 151.336 31.6856H150.881C150.829 31.285 150.758 30.9422 150.665 30.663C150.571 30.3838 150.412 30.1507 150.177 29.9697C149.947 29.7848 149.622 29.6924 149.201 29.6924H147.581V33.4034C147.581 33.8945 147.619 34.2508 147.702 34.4684C147.781 34.686 147.927 34.8363 148.138 34.9114C148.353 34.9903 148.694 35.025 149.162 35.025H150.594C151.234 35.025 151.745 34.9248 152.13 34.7149C152.51 34.5089 152.8 34.1718 152.995 33.7058C153.192 33.2359 153.329 32.5888 153.404 31.7607H153.852C153.813 32.1131 153.794 32.5792 153.794 33.1646H153.798ZM167.669 23.9823C167.218 24.0016 166.883 24.0671 166.662 24.1788C166.443 24.2904 166.295 24.4715 166.211 24.7257C166.13 24.9799 166.088 25.3535 166.088 25.8523V35.57H165.642L157.837 24.7449V33.2032C157.837 33.7058 157.884 34.0833 157.972 34.3375C158.06 34.5917 158.23 34.7766 158.474 34.8882C158.718 34.9999 159.098 35.0635 159.611 35.0847V35.4756C159.146 35.4371 158.483 35.4178 157.622 35.4178C156.846 35.4178 156.244 35.4371 155.812 35.4756V35.0847C156.264 35.0654 156.6 34.9999 156.817 34.8882C157.038 34.7766 157.188 34.5917 157.269 34.3375C157.353 34.0833 157.392 33.7058 157.392 33.2032V25.6597C157.392 25.1705 157.353 24.8162 157.274 24.5909C157.194 24.3694 157.046 24.2153 156.834 24.1345C156.623 24.0497 156.281 23.9996 155.81 23.9804V23.5894C156.237 23.626 156.838 23.6453 157.62 23.6453C158.335 23.6453 158.937 23.626 159.419 23.5894L165.644 32.2672V25.8504C165.644 25.3477 165.598 24.9703 165.513 24.7199C165.429 24.4696 165.259 24.2866 165.012 24.1749C164.766 24.0632 164.385 23.9996 163.87 23.9785V23.5875C164.331 23.6241 164.994 23.6434 165.859 23.6434C166.639 23.6434 167.245 23.6241 167.669 23.5875V23.9785V23.9823ZM180.003 23.5914C179.909 24.4214 179.861 25.1917 179.861 25.8927C179.861 26.5668 179.88 27.1021 179.919 27.495H179.471C179.396 26.5822 179.273 25.8889 179.104 25.4093C178.939 24.9279 178.664 24.5793 178.283 24.3636C177.907 24.146 177.367 24.0382 176.661 24.0382H175.412V33.2051C175.412 33.7462 175.464 34.141 175.566 34.3914C175.666 34.6456 175.852 34.817 176.119 34.9114C176.387 35.0057 176.809 35.0654 177.384 35.0847V35.4756C176.711 35.4371 175.758 35.4178 174.519 35.4178C173.221 35.4178 172.259 35.4371 171.632 35.4756V35.0847C172.211 35.0654 172.633 35.0057 172.9 34.9114C173.168 34.817 173.348 34.6437 173.454 34.3914C173.554 34.141 173.604 33.7462 173.604 33.2051V24.0382H172.359C171.653 24.0382 171.113 24.146 170.738 24.3636C170.362 24.5793 170.089 24.9298 169.92 25.4132C169.747 25.8947 169.624 26.5899 169.545 27.495H169.099C169.136 27.081 169.155 26.5475 169.155 25.8927C169.155 25.211 169.113 24.4426 169.022 23.5914C170.102 23.628 171.936 23.6472 174.521 23.6472C177.1 23.6472 178.927 23.628 180.005 23.5914H180.003Z" fill="#D9AF78"/>
<path d="M67.8244 39.707C68.5989 39.707 69.2619 39.8187 69.8115 40.0421C70.3573 40.2636 70.8935 40.5775 71.4143 40.9781C71.5546 41.0917 71.6814 41.1475 71.7948 41.1475C72.0619 41.1475 72.2272 40.7605 72.2926 39.9844H72.7384C72.6884 40.8317 72.6635 42.33 72.6635 44.4811H72.2138C72.1196 43.8938 72.0312 43.4393 71.9543 43.1157C71.8736 42.7903 71.7794 42.5168 71.6718 42.2876C71.5642 42.0623 71.4181 41.8293 71.2356 41.5866C70.8378 41.0782 70.3419 40.6969 69.7404 40.4427C69.135 40.1846 68.4855 40.0575 67.7859 40.0575C66.9403 40.0575 66.2024 40.3368 65.5643 40.8972C64.9302 41.4576 64.4401 42.2568 64.0884 43.2948C63.7406 44.3309 63.5657 45.5461 63.5657 46.9404C63.5657 48.3578 63.7579 49.5769 64.1384 50.5976C64.5189 51.6144 65.0435 52.3905 65.7085 52.9182C66.3753 53.4459 67.1325 53.7097 67.9781 53.7097C68.6258 53.7097 69.2561 53.5864 69.873 53.338C70.488 53.0876 70.9665 52.716 71.3105 52.221C71.5776 51.8628 71.7679 51.4777 71.8832 51.0617C71.9966 50.6457 72.1081 49.9986 72.2138 49.1301H72.6635C72.6635 51.3756 72.6884 52.9394 72.7384 53.8252H72.2926C72.2599 53.417 72.208 53.1242 72.133 52.9413C72.0619 52.7583 71.9543 52.6717 71.814 52.6717C71.7141 52.6717 71.5796 52.7237 71.4143 52.8315C71.028 53.105 70.6706 53.3303 70.3438 53.5055C70.0152 53.6808 69.6424 53.8214 69.2215 53.935C68.8026 54.0467 68.3317 54.1006 67.8032 54.1006C66.5637 54.1006 65.4779 53.8214 64.5477 53.259C63.6176 52.6986 62.8988 51.8879 62.3857 50.8229C61.8745 49.754 61.6189 48.4869 61.6189 47.0175C61.6189 45.5808 61.8822 44.3059 62.4126 43.1985C62.9392 42.0912 63.6714 41.2342 64.6111 40.6218C65.5509 40.0132 66.6233 39.707 67.8244 39.707V39.707ZM79.7972 42.3339C79.3282 42.3531 78.9881 42.4013 78.7728 42.4879C78.5614 42.5688 78.4154 42.7229 78.3366 42.9443C78.2559 43.1697 78.2155 43.524 78.2155 44.0132V51.755C78.2155 52.2461 78.254 52.6023 78.3366 52.82C78.4154 53.0376 78.5614 53.1878 78.7728 53.2629C78.9881 53.3419 79.3282 53.3765 79.7972 53.3765H81.0271C81.9304 53.3765 82.6299 53.1127 83.1276 52.5812C83.6292 52.0496 83.9309 51.1599 84.0386 49.912H84.4863C84.4479 50.3202 84.4287 50.8537 84.4287 51.5142C84.4287 52.2018 84.4748 52.9702 84.5632 53.8252C83.7176 53.7867 82.2936 53.7675 80.2872 53.7675C77.885 53.7675 76.067 53.7867 74.8274 53.8252V53.4343C75.2982 53.415 75.6403 53.363 75.8517 53.2822C76.0631 53.2013 76.2092 53.0472 76.2918 52.8219C76.3706 52.6004 76.409 52.2441 76.409 51.7531V44.0112C76.409 43.5221 76.3706 43.1677 76.2918 42.9424C76.2111 42.7209 76.0631 42.5669 75.8517 42.486C75.6403 42.4013 75.2982 42.3512 74.8274 42.3319V41.941C75.3674 41.9776 76.1996 41.9968 77.3257 41.9968C78.3789 41.9968 79.2052 41.9776 79.801 41.941V42.3319L79.7972 42.3339ZM97.3182 42.3339C96.8666 42.3531 96.5322 42.4186 96.3131 42.5303C96.0959 42.642 95.9422 42.823 95.8615 43.0772C95.7769 43.3314 95.7385 43.705 95.7385 44.2038V48.5273C95.7385 49.4228 95.677 50.1893 95.5559 50.8248C95.4348 51.4565 95.2311 52.0073 94.9467 52.481C94.6353 52.976 94.1799 53.3707 93.5841 53.6635C92.9845 53.9562 92.3119 54.1026 91.5605 54.1026C90.2267 54.1026 89.2024 53.8156 88.4837 53.2417C88.0974 52.8931 87.8014 52.5215 87.592 52.1305C87.3863 51.7396 87.2403 51.2677 87.1596 50.717C87.0788 50.1662 87.0366 49.4555 87.0366 48.5851V44.0093C87.0366 43.5202 86.9981 43.1658 86.9174 42.9405C86.8386 42.719 86.6926 42.565 86.4773 42.4841C86.2659 42.3993 85.9238 42.3493 85.4569 42.33V41.9391C86.0065 41.9757 86.8386 41.9949 87.9513 41.9949C88.9987 41.9949 89.8232 41.9757 90.4285 41.9391V42.33C89.9577 42.3493 89.6195 42.3974 89.4081 42.4841C89.2005 42.565 89.0545 42.719 88.9757 42.9405C88.8969 43.1658 88.8546 43.5202 88.8546 44.0093V48.9163C88.8546 49.885 88.9199 50.6823 89.0506 51.312C89.1813 51.9437 89.458 52.4521 89.8789 52.8373C90.3017 53.2225 90.9224 53.415 91.743 53.415C93.0499 53.415 93.9704 53.0068 94.497 52.1902C95.0235 51.3737 95.2868 50.2259 95.2868 48.7468V44.2038C95.2868 43.7243 95.2311 43.3565 95.1216 43.0965C95.0101 42.8365 94.8295 42.6478 94.5796 42.5322C94.3298 42.4186 93.9742 42.3531 93.5169 42.3339V41.9429C93.9819 41.9795 94.645 41.9988 95.5059 41.9988C96.29 41.9988 96.8915 41.9795 97.3163 41.9429V42.3339H97.3182ZM104.911 47.4893C106.27 47.6588 107.242 48.0304 107.825 48.6005C108.411 49.1705 108.703 49.8426 108.703 50.6207C108.703 51.2485 108.524 51.807 108.163 52.2884C107.805 52.7737 107.288 53.1493 106.612 53.4189C105.936 53.6885 105.136 53.8272 104.216 53.8272L103.356 53.8079C102.57 53.7809 101.802 53.7694 101.05 53.7694C99.9837 53.7694 99.1785 53.7886 98.6308 53.8272V53.4362C99.1016 53.417 99.4437 53.365 99.6551 53.2841C99.8665 53.2032 100.013 53.0491 100.095 52.8238C100.174 52.6023 100.212 52.2461 100.212 51.755V44.0132C100.212 43.5182 100.174 43.16 100.095 42.9347C100.014 42.7132 99.8703 42.5592 99.6589 42.4821C99.4514 42.4032 99.1093 42.355 98.6308 42.3358V41.9448C99.1708 41.9814 99.9645 42.0007 101.012 42.0007C101.237 42.0007 101.9 41.9911 103.005 41.9718L103.766 41.9622C104.611 41.9622 105.326 42.0758 105.916 42.3011C106.502 42.5303 106.944 42.8423 107.24 43.2428C107.536 43.6434 107.682 44.1095 107.682 44.6371C107.682 45.2669 107.463 45.8292 107.025 46.3242C106.587 46.8229 105.884 47.1985 104.911 47.4508V47.4912V47.4893ZM103.272 42.3339C102.92 42.3339 102.661 42.3801 102.486 42.4706C102.311 42.5611 102.19 42.7286 102.125 42.9636C102.055 43.1985 102.025 43.551 102.025 44.0132V47.4508H103.139C104.135 47.4508 104.83 47.2235 105.224 46.7671C105.618 46.3145 105.816 45.6752 105.816 44.8548C105.816 44.0132 105.615 43.3854 105.211 42.9655C104.807 42.5457 104.16 42.3358 103.272 42.3358V42.3339ZM103.291 53.3765C104.479 53.3765 105.353 53.1377 105.909 52.662C106.468 52.1825 106.747 51.4757 106.747 50.5398C106.747 49.6366 106.487 48.9491 105.966 48.4849C105.445 48.015 104.613 47.7839 103.47 47.7839H102.023V51.7531C102.023 52.2249 102.055 52.5696 102.123 52.7949C102.188 53.0164 102.307 53.1705 102.484 53.2513C102.659 53.3361 102.926 53.3746 103.289 53.3746L103.291 53.3765Z" fill="#D9AF78"/>
<path fill-rule="evenodd" clip-rule="evenodd" d="M25.3643 1.03125L50.0498 15.0435L50.0555 42.6868L25.4738 56.9648L0.895996 42.9545V14.824L25.3643 1.03125Z" stroke="#D9AF78" stroke-width="2" stroke-miterlimit="22.9256"/>
<path fill-rule="evenodd" clip-rule="evenodd" d="M7.61279 11.0378V46.783L25.3836 56.9148L43.3736 46.5693L43.3716 11.2516L25.3644 1.03125L7.61279 11.0378Z" stroke="#D9AF78" stroke-width="1.4" stroke-miterlimit="22.9256"/>
<path d="M25.3763 7.79184C27.5624 8.86367 30.1323 10.5831 32.1814 12.6909C34.3403 14.9116 35.8353 17.4722 35.8397 20.093L35.8453 50.1305L25.4687 56.158L15.0067 50.1942L15.0295 20.6355L15.0295 20.6333C15.0172 15.4456 19.3663 10.9961 25.3763 7.79184Z" stroke="#D9AF78" stroke-width="1.4" stroke-miterlimit="22.9256"/>
<path d="M15.0293 27.6645L15.0293 27.6643C15.0276 22.4719 19.3723 18.0455 25.3837 14.8417C27.5691 15.9138 30.1405 17.6435 32.1903 19.7555C34.3501 21.9809 35.8415 24.5361 35.8415 27.1234V27.1235L35.8471 50.204L25.4706 56.2315L15.0293 50.2791V27.6645Z" stroke="#D9AF78" stroke-width="1.4" stroke-miterlimit="22.9256"/>
<path d="M25.3678 20.9408C27.5566 22.0123 30.1319 23.7207 32.1841 25.8213C34.3446 28.0328 35.8405 30.5893 35.8397 33.2285L35.8397 33.229L35.8453 50.2064L25.4687 56.2339L15.007 50.2703L15.0295 33.7708L15.0295 33.7692C15.0242 28.6569 19.3617 24.1455 25.3678 20.9408Z" stroke="#D9AF78" stroke-width="1.4" stroke-miterlimit="22.9256"/>
<path d="M64.6227 14.5402C64.6227 15.0312 64.6745 15.3875 64.7745 15.609C64.8744 15.8343 65.0608 15.9865 65.3279 16.0693C65.5951 16.1501 66.0179 16.2021 66.5925 16.2214V16.6123C65.9199 16.5738 64.9667 16.5546 63.7271 16.5546C62.6086 16.5546 61.7765 16.5738 61.2288 16.6123V16.2214C61.6996 16.2021 62.0417 16.1501 62.2531 16.0693C62.4645 15.9884 62.6105 15.8343 62.6932 15.609C62.772 15.3875 62.8104 15.0312 62.8104 14.5402V4.84172C62.8104 4.35063 62.772 3.99435 62.6932 3.77288C62.6125 3.54756 62.4645 3.39542 62.2531 3.31261C62.0417 3.23173 61.6996 3.17973 61.2288 3.16047V2.76953C61.7688 2.80805 62.5625 2.82731 63.6099 2.82731C63.8405 2.82731 64.5458 2.81768 65.7277 2.79842L66.556 2.78879C67.5765 2.78879 68.4413 2.94863 69.1485 3.27025C69.8519 3.58993 70.3803 4.0425 70.732 4.62025C71.0856 5.19992 71.2625 5.87396 71.2625 6.64429C71.2625 7.35684 71.1029 8.04436 70.7878 8.70684C70.4688 9.3674 69.9268 9.91818 69.1619 10.3592C68.3971 10.7983 67.3862 11.0178 66.1274 11.0178H64.6227V14.5402V14.5402ZM66.0698 3.16047C65.6623 3.16047 65.3606 3.20669 65.155 3.30106C64.9532 3.39157 64.8148 3.55527 64.736 3.79022C64.6611 4.02902 64.6227 4.37759 64.6227 4.84364V10.6269H65.9352C67.2075 10.6269 68.0857 10.2879 68.5758 9.60813C69.0639 8.92639 69.308 8.00777 69.308 6.85805C69.308 6.01647 69.2004 5.32702 68.9851 4.78587C68.768 4.24471 68.422 3.84029 67.9512 3.57067C67.4765 3.30106 66.8519 3.1624 66.0678 3.1624L66.0698 3.16047ZM84.1519 15.79C83.9059 16.1444 83.6254 16.4178 83.3102 16.6046C82.995 16.7934 82.6107 16.8877 82.1629 16.8877C81.0828 16.8877 80.414 16.3928 80.1527 15.3991L79.5512 12.9552C79.4301 12.4603 79.2687 12.079 79.0592 11.8151C78.8535 11.5513 78.6018 11.3683 78.302 11.272C78.0022 11.1738 77.6198 11.1218 77.1508 11.1218H76.0362V14.5402C76.0362 15.0312 76.0746 15.3875 76.1573 15.609C76.2361 15.8343 76.3821 15.9865 76.5935 16.0693C76.8088 16.1501 77.1489 16.2021 77.6178 16.2214V16.6123C77.0163 16.5738 76.1899 16.5546 75.1426 16.5546C74.0183 16.5546 73.1842 16.5738 72.6442 16.6123V16.2214C73.1151 16.2021 73.4571 16.1501 73.6685 16.0693C73.8799 15.9884 74.026 15.8343 74.1086 15.609C74.1874 15.3875 74.2259 15.0312 74.2259 14.5402V6.79835C74.2259 6.30342 74.1874 5.94521 74.1086 5.71989C74.0279 5.49842 73.8838 5.34436 73.6724 5.26732C73.4648 5.18836 73.1228 5.14022 72.6442 5.12096V4.73002C73.1842 4.76661 73.978 4.78587 75.0253 4.78587C75.2502 4.78587 75.9132 4.77624 77.0182 4.75698L77.7793 4.74735C78.7517 4.74735 79.5742 4.87446 80.2507 5.13252C80.9272 5.38672 81.4384 5.7353 81.7766 6.17439C82.1187 6.61732 82.2878 7.12574 82.2878 7.69964C82.2878 8.17532 82.1667 8.63751 81.9265 9.08815C81.6824 9.53687 81.2731 9.93552 80.6908 10.2802C80.1085 10.6288 79.3474 10.858 78.4019 10.9735C78.6229 10.9774 78.8439 11.0005 79.0688 11.039C79.7626 11.1469 80.3083 11.3587 80.7119 11.6688C81.1155 11.9827 81.398 12.4834 81.5633 13.1767L81.9938 14.9523C82.1014 15.4106 82.2148 15.7342 82.3378 15.9229C82.4588 16.1078 82.6164 16.2021 82.8124 16.2021C83.1372 16.2021 83.4947 15.9807 83.8887 15.5339L84.1558 15.7919L84.1519 15.79ZM77.2834 5.11903C76.9318 5.11903 76.6723 5.16525 76.4974 5.25577C76.3225 5.34628 76.2015 5.51383 76.1361 5.74878C76.0669 5.98373 76.0362 6.33615 76.0362 6.79835V10.7309H77.3488C78.1329 10.7309 78.7402 10.6134 79.1803 10.3727C79.6203 10.1358 79.9182 9.81226 80.0854 9.40206C80.2507 8.99186 80.3314 8.49693 80.3314 7.91533C80.3314 6.9736 80.0969 6.2726 79.6223 5.81041C79.1514 5.34821 78.3693 5.11903 77.2834 5.11903V5.11903ZM94.4201 14.3014C94.4201 14.9889 94.4662 15.7573 94.5546 16.6123C93.709 16.5738 92.285 16.5546 90.2786 16.5546C87.8764 16.5546 86.0584 16.5738 84.8188 16.6123V16.2214C85.2896 16.2021 85.6317 16.1501 85.8431 16.0693C86.0545 15.9884 86.2006 15.8343 86.2832 15.609C86.362 15.3875 86.4004 15.0312 86.4004 14.5402V6.79835C86.4004 6.30919 86.362 5.95484 86.2832 5.72952C86.2025 5.50805 86.0545 5.35399 85.8431 5.2731C85.6317 5.18836 85.2896 5.13829 84.8188 5.11903V4.72809C86.0584 4.76468 87.8764 4.78394 90.2786 4.78394C92.1005 4.78394 93.3977 4.76468 94.1645 4.72809C94.0761 5.50998 94.03 6.21483 94.03 6.83687C94.03 7.34529 94.0492 7.74971 94.0876 8.05014H93.6398C93.5687 7.3241 93.4477 6.75598 93.2728 6.34193C93.0979 5.92788 92.8461 5.62938 92.5214 5.44835C92.1927 5.2654 91.7603 5.17488 91.2203 5.17488H89.7886C89.3196 5.17488 88.9795 5.21147 88.7642 5.28658C88.5529 5.35784 88.4068 5.50805 88.328 5.72952C88.2473 5.95484 88.2069 6.30919 88.2069 6.79835V10.4343H89.827C90.2402 10.4343 90.5592 10.3303 90.7821 10.1146C91.0108 9.90278 91.1588 9.66783 91.2376 9.41169C91.3125 9.15171 91.3837 8.82817 91.4452 8.44108H91.8949C91.8487 8.9495 91.8257 9.4348 91.8257 9.89122L91.8353 10.6269C91.8353 11.1488 91.8776 11.8825 91.9583 12.8223H91.5028C91.4509 12.4218 91.3798 12.079 91.2876 11.7997C91.1934 11.5205 91.0339 11.2874 90.7994 11.1064C90.5688 10.9215 90.244 10.8291 89.8232 10.8291H88.2031V14.5402C88.2031 15.0312 88.2415 15.3875 88.3242 15.6051C88.4029 15.8228 88.549 15.973 88.7604 16.0481C88.9756 16.127 89.3158 16.1617 89.7847 16.1617H91.2165C91.8564 16.1617 92.3676 16.0616 92.752 15.8516C93.1325 15.6456 93.4227 15.3086 93.6168 14.8425C93.8147 14.3726 93.9512 13.7255 94.0261 12.8974H94.4739C94.4355 13.2499 94.4163 13.7159 94.4163 14.3014H94.4201ZM111.397 5.11903C110.926 5.13829 110.584 5.18644 110.373 5.2731C110.158 5.35399 110.012 5.50805 109.935 5.72952C109.854 5.95484 109.814 6.30919 109.814 6.79835V14.5402C109.814 15.0312 109.852 15.3875 109.935 15.609C110.014 15.8343 110.16 15.9865 110.373 16.0693C110.584 16.1501 110.926 16.2021 111.397 16.2214V16.6123C110.786 16.5738 109.96 16.5546 108.92 16.5546C107.802 16.5546 106.969 16.5738 106.422 16.6123V16.2214C106.893 16.2021 107.231 16.1501 107.442 16.0693C107.65 15.9884 107.796 15.8343 107.875 15.609C107.953 15.3875 107.994 15.0312 107.994 14.5402V5.95677L103.295 16.7067H102.982L98.4559 5.97603V14.3399C98.4559 14.8425 98.502 15.22 98.5904 15.4742C98.6788 15.7284 98.8479 15.9133 99.092 16.025C99.336 16.1367 99.7166 16.2002 100.23 16.2214V16.6123C99.7646 16.5738 99.1016 16.5546 98.2406 16.5546C97.4642 16.5546 96.8627 16.5738 96.4303 16.6123V16.2214C96.8819 16.2021 97.2182 16.1367 97.4354 16.025C97.6564 15.9133 97.8063 15.7284 97.887 15.4742C97.9716 15.22 98.01 14.8425 98.01 14.3399V6.79643C98.01 6.30727 97.9716 5.95292 97.8928 5.72759C97.8121 5.50613 97.6641 5.35206 97.4527 5.27118C97.2413 5.18644 96.8992 5.13637 96.4284 5.11711V4.72617C96.855 4.76276 97.4565 4.78202 98.2387 4.78202C98.8537 4.78202 99.4091 4.76276 99.903 4.72617L103.812 14.2513L107.994 4.78202H108.918C109.958 4.78202 110.784 4.76276 111.395 4.72617V5.11711L111.397 5.11903ZM118.004 5.11903C117.535 5.13829 117.195 5.18644 116.98 5.2731C116.769 5.35399 116.623 5.50805 116.544 5.72952C116.463 5.95484 116.423 6.30919 116.423 6.79835V14.5402C116.423 15.0312 116.461 15.3875 116.544 15.609C116.623 15.8343 116.769 15.9865 116.98 16.0693C117.195 16.1501 117.535 16.2021 118.004 16.2214V16.6123C117.409 16.5738 116.584 16.5546 115.529 16.5546C114.411 16.5546 113.578 16.5738 113.031 16.6123V16.2214C113.502 16.2021 113.844 16.1501 114.055 16.0693C114.266 15.9884 114.413 15.8343 114.495 15.609C114.574 15.3875 114.612 15.0312 114.612 14.5402V6.79835C114.612 6.30919 114.574 5.95484 114.495 5.72952C114.414 5.50805 114.266 5.35399 114.055 5.2731C113.844 5.18836 113.502 5.13829 113.031 5.11903V4.72809C113.571 4.76468 114.403 4.78394 115.529 4.78394C116.582 4.78394 117.409 4.76468 118.004 4.72809V5.11903V5.11903ZM131.171 5.11903C130.719 5.13829 130.385 5.20377 130.165 5.31547C129.948 5.42717 129.795 5.60819 129.714 5.8624C129.629 6.11661 129.591 6.49022 129.591 6.98901V11.3125C129.591 12.208 129.529 12.9745 129.408 13.61C129.287 14.2417 129.084 14.7924 128.799 15.2662C128.488 15.7611 128.032 16.1559 127.437 16.4487C126.837 16.7414 126.164 16.8877 125.413 16.8877C124.079 16.8877 123.055 16.6008 122.336 16.0269C121.95 15.6783 121.654 15.3066 121.444 14.9157C121.239 14.5248 121.093 14.0529 121.012 13.5021C120.931 12.9514 120.889 12.2407 120.889 11.3703V6.7945C120.889 6.30534 120.851 5.95099 120.77 5.72567C120.691 5.5042 120.545 5.35013 120.33 5.26925C120.118 5.18451 119.776 5.13444 119.309 5.11518V4.72424C119.859 4.76083 120.691 4.78009 121.804 4.78009C122.851 4.78009 123.676 4.76083 124.281 4.72424V5.11518C123.81 5.13444 123.472 5.18259 123.26 5.26925C123.053 5.35013 122.907 5.5042 122.828 5.72567C122.749 5.95099 122.707 6.30534 122.707 6.7945V11.7015C122.707 12.6702 122.772 13.4675 122.903 14.0972C123.034 14.7289 123.31 15.2373 123.731 15.6225C124.154 16.0076 124.775 16.2002 125.595 16.2002C126.902 16.2002 127.823 15.7919 128.349 14.9754C128.876 14.1588 129.139 13.0111 129.139 11.532V6.98901C129.139 6.50948 129.084 6.14165 128.974 5.88166C128.863 5.62167 128.682 5.43294 128.432 5.31739C128.182 5.20377 127.827 5.13829 127.369 5.11903V4.72809C127.834 4.76468 128.497 4.78394 129.358 4.78394C130.142 4.78394 130.744 4.76468 131.169 4.72809V5.11903H131.171ZM147.452 5.11903C146.981 5.13829 146.639 5.18644 146.428 5.2731C146.212 5.35399 146.066 5.50805 145.99 5.72952C145.909 5.95484 145.868 6.30919 145.868 6.79835V14.5402C145.868 15.0312 145.907 15.3875 145.99 15.609C146.068 15.8343 146.214 15.9865 146.428 16.0693C146.639 16.1501 146.981 16.2021 147.452 16.2214V16.6123C146.841 16.5738 146.015 16.5546 144.975 16.5546C143.856 16.5546 143.024 16.5738 142.477 16.6123V16.2214C142.947 16.2021 143.286 16.1501 143.497 16.0693C143.705 15.9884 143.851 15.8343 143.929 15.609C144.008 15.3875 144.049 15.0312 144.049 14.5402V5.95677L139.35 16.7067H139.036L134.511 5.97603V14.3399C134.511 14.8425 134.557 15.22 134.645 15.4742C134.734 15.7284 134.903 15.9133 135.147 16.025C135.391 16.1367 135.771 16.2002 136.284 16.2214V16.6123C135.819 16.5738 135.156 16.5546 134.295 16.5546C133.519 16.5546 132.918 16.5738 132.485 16.6123V16.2214C132.937 16.2021 133.273 16.1367 133.49 16.025C133.711 15.9133 133.861 15.7284 133.942 15.4742C134.026 15.22 134.065 14.8425 134.065 14.3399V6.79643C134.065 6.30727 134.026 5.95292 133.948 5.72759C133.867 5.50613 133.719 5.35206 133.507 5.27118C133.296 5.18644 132.954 5.13637 132.483 5.11711V4.72617C132.91 4.76276 133.511 4.78202 134.294 4.78202C134.908 4.78202 135.464 4.76276 135.958 4.72617L139.867 14.2513L144.049 4.78202H144.973C146.013 4.78202 146.839 4.76276 147.45 4.72617V5.11711L147.452 5.11903Z" fill="#D9AF78"/>
</g>
<defs>
<clipPath id="clip0_531_568">
<rect width="180" height="58" fill="white"/>
</clipPath>
</defs>
</svg>
