<svg width="25" height="25" viewBox="0 0 25 25" fill="none" xmlns="http://www.w3.org/2000/svg">
<path d="M22.3959 8.84167V17.5781C22.3959 19.0885 21.172 20.3125 19.6615 20.3125H5.33862C4.61342 20.3125 3.91792 20.0244 3.40513 19.5116C2.89233 18.9988 2.60425 18.3033 2.60425 17.5781V8.84167L12.1865 14.1125C12.3819 14.2198 12.6188 14.2198 12.8136 14.1125L22.3959 8.84115V8.84167ZM19.6615 4.6875C20.3753 4.68757 21.0608 4.96675 21.5715 5.4654C22.0823 5.96406 22.3777 6.64266 22.3949 7.35625L12.5001 12.799L2.60529 7.35573L2.60633 7.30885C2.6355 6.60378 2.93613 5.93728 3.44535 5.44874C3.95457 4.96019 4.63295 4.68743 5.33862 4.6875H19.6615Z" fill="#D9AF78"/>
</svg>
