<svg width="64" height="94" viewBox="0 0 64 94" fill="none" xmlns="http://www.w3.org/2000/svg">
<path d="M10.1195 0.187044C10.6571 0.0606199 11.1954 0.393952 11.3218 0.931573L13.3821 9.69258C13.5085 10.2302 13.1752 10.7685 12.6376 10.8949C12.0999 11.0214 11.5616 10.688 11.4352 10.1504L9.60384 2.36285L1.81628 4.1942C1.27866 4.32063 0.740341 3.98729 0.613912 3.44967C0.487487 2.91205 0.820821 2.37374 1.35844 2.24731L10.1195 0.187044ZM63.0471 93.2813C37.2079 95.5603 17.7727 82.0878 7.84148 63.2133C-2.07334 44.37 -2.549 20.0894 9.49817 0.634031L11.1986 1.68695C-0.441636 20.4851 -0.00464681 44.0065 9.61142 62.282C19.2111 80.5263 37.9251 93.4893 62.8714 91.289L63.0471 93.2813Z" fill="url(#paint0_linear_375_463)"/>
<defs>
<linearGradient id="paint0_linear_375_463" x1="10.3484" y1="1.16049" x2="62.9592" y2="92.2852" gradientUnits="userSpaceOnUse">
<stop stop-color="#D9AF78"/>
<stop offset="1" stop-color="#D9AF78" stop-opacity="0"/>
</linearGradient>
</defs>
</svg>
