<svg width="95" height="63" viewBox="0 0 95 63" fill="none" xmlns="http://www.w3.org/2000/svg">
<path d="M94.1914 9.99617C94.3178 10.5338 93.9845 11.0721 93.4468 11.1985L84.6858 13.2588C84.1482 13.3852 83.6099 13.0519 83.4835 12.5143C83.357 11.9766 83.6904 11.4383 84.228 11.3119L92.0156 9.48056L90.1842 1.69299C90.0578 1.15538 90.3911 0.617057 90.9287 0.490628C91.4664 0.364202 92.0047 0.697537 92.1311 1.23516L94.1914 9.99617ZM1.09713 62.9238C-1.18192 37.0846 12.2906 17.6494 31.1651 7.7182C50.0084 -2.19662 74.289 -2.67229 93.7444 9.37489L92.6915 11.0753C73.8933 -0.564921 50.3719 -0.127933 32.0964 9.48814C13.8521 19.0878 0.889106 37.8018 3.08939 62.7481L1.09713 62.9238Z" fill="url(#paint0_linear_375_464)"/>
<defs>
<linearGradient id="paint0_linear_375_464" x1="93.2179" y1="10.2251" x2="2.09326" y2="62.8359" gradientUnits="userSpaceOnUse">
<stop stop-color="#D9AF78"/>
<stop offset="1" stop-color="#D9AF78" stop-opacity="0"/>
</linearGradient>
</defs>
</svg>
