<svg width="111" height="34" viewBox="0 0 111 34" fill="none" xmlns="http://www.w3.org/2000/svg">
<path d="M3.04072 0.717536C3.19672 0.18774 3.75266 -0.115285 4.28246 0.04071L12.916 2.5828C13.4458 2.7388 13.7488 3.29474 13.5928 3.82454C13.4368 4.35433 12.8809 4.65736 12.3511 4.50136L4.67683 2.24173L2.41719 9.91597C2.26119 10.4458 1.70525 10.7488 1.17545 10.5928C0.64566 10.4368 0.342635 9.88086 0.498626 9.35106L3.04072 0.717536ZM110.904 1.4272C99.8749 24.7703 78.3327 34.7822 56.875 33.9525C35.4508 33.124 14.0293 21.4897 3.12196 1.47858L4.87804 0.521402C15.413 19.8493 36.1552 31.1498 56.9523 31.954C77.7157 32.7569 98.4524 23.0992 109.096 0.572799L110.904 1.4272Z" fill="url(#paint0_linear_375_462)"/>
<defs>
<linearGradient id="paint0_linear_375_462" x1="4" y1="0.999991" x2="110" y2="1" gradientUnits="userSpaceOnUse">
<stop stop-color="#D9AF78"/>
<stop offset="1" stop-color="#D9AF78" stop-opacity="0"/>
</linearGradient>
</defs>
</svg>
