<svg width="34" height="111" viewBox="0 0 34 111" fill="none" xmlns="http://www.w3.org/2000/svg">
<path d="M0.717541 107.959C0.187745 107.803 -0.115281 107.247 0.0407146 106.718L2.58281 98.084C2.7388 97.5542 3.29474 97.2512 3.82454 97.4072C4.35434 97.5632 4.65736 98.1191 4.50137 98.6489L2.24173 106.323L9.91598 108.583C10.4458 108.739 10.7488 109.295 10.5928 109.825C10.4368 110.354 9.88086 110.657 9.35107 110.501L0.717541 107.959ZM1.4272 0.0958433C24.7703 11.1251 34.7822 32.6673 33.9525 54.125C33.124 75.5492 21.4897 96.9707 1.47858 107.878L0.521407 106.122C19.8493 95.587 31.1498 74.8448 31.954 54.0477C32.7569 33.2843 23.0992 12.5476 0.572799 1.90416L1.4272 0.0958433Z" fill="url(#paint0_linear_375_461)"/>
<defs>
<linearGradient id="paint0_linear_375_461" x1="0.999995" y1="107" x2="1" y2="1" gradientUnits="userSpaceOnUse">
<stop stop-color="#D9AF78"/>
<stop offset="1" stop-color="#D9AF78" stop-opacity="0"/>
</linearGradient>
</defs>
</svg>
