<svg width="100" height="66" viewBox="0 0 100 66" fill="none" xmlns="http://www.w3.org/2000/svg">
<path d="M92.6209 65.5621C92.2185 65.9404 91.5857 65.9209 91.2074 65.5185L85.0426 58.9614C84.6643 58.559 84.6838 57.9261 85.0862 57.5478C85.4886 57.1695 86.1215 57.189 86.4998 57.5914L91.9795 63.42L97.8081 57.9402C98.2105 57.5619 98.8433 57.5814 99.2216 57.9838C99.5999 58.3862 99.5804 59.019 99.178 59.3973L92.6209 65.5621ZM0.237124 11.4039C21.475 -3.48942 45.0426 -1.53942 63.0806 9.84074C81.0887 21.2021 93.6409 41.9919 92.9355 64.8643L90.9364 64.8027C91.618 42.7029 79.4789 22.5512 62.0134 11.5322C44.5777 0.532036 21.8894 -1.33726 1.38543 13.0414L0.237124 11.4039Z" fill="url(#paint0_linear_375_460)"/>
<defs>
<linearGradient id="paint0_linear_375_460" x1="91.9359" y1="64.8335" x2="0.81128" y2="12.2227" gradientUnits="userSpaceOnUse">
<stop stop-color="#D9AF78"/>
<stop offset="1" stop-color="#D9AF78" stop-opacity="0"/>
</linearGradient>
</defs>
</svg>
