<svg width="130" height="130" viewBox="0 0 130 130" fill="none" xmlns="http://www.w3.org/2000/svg">
<rect x="1" y="1" width="128" height="128" fill="white" stroke="#D9AF78" stroke-width="2"/>
<path d="M26.6743 20V80.5932C25.3368 87.0157 23.0716 89.5214 16.3665 89.2298V92.1548H36.0065V89.6472C35.4491 89.3695 34.8922 89.0903 34.3353 88.8126V39.9199L55.9256 58.4456V80.0358H59.8266V52.7352L26.6743 20.0001V20Z" fill="#3E4095"/>
<path d="M39.7215 47.3156C39.7042 50.5464 39.6898 53.7787 39.6744 57.0264C38.3508 56.3611 36.9346 55.6434 35.4185 54.8682C35.4447 51.2483 35.4709 47.6319 35.4972 44.0312C36.9989 45.2118 38.4062 46.3047 39.7215 47.3156Z" fill="#D2AE6D"/>
<path d="M45.0129 51.4153C45.0094 54.1828 45.0026 56.9542 44.999 59.7362C44.1625 59.31 43.2824 58.8645 42.3513 58.3828C42.3622 55.3738 42.3726 52.3721 42.381 49.3789C43.3066 50.0986 44.1819 50.7762 45.0129 51.4153Z" fill="#D2AE6D"/>
<path d="M49.2364 54.6934C49.2384 57.0892 49.2404 59.4939 49.2418 61.9055C48.6187 61.5857 47.9638 61.2506 47.2827 60.8997C47.2827 58.3223 47.2841 55.7483 47.2841 53.1797C47.9638 53.7084 48.6151 54.2132 49.2364 54.6934Z" fill="#D2AE6D"/>
<path d="M52.4577 57.1966C52.4647 59.3152 52.4696 61.4333 52.475 63.5637C51.9914 63.3172 51.4885 63.0574 50.9663 62.7901C50.9608 60.5304 50.9574 58.2762 50.9539 56.0234C51.4762 56.4339 51.9755 56.8228 52.4577 57.1966Z" fill="#D2AE6D"/>
<path d="M55.0001 59.1787C55.0071 61.0765 55.016 62.9783 55.023 64.8781C54.6354 64.6846 54.2373 64.4802 53.825 64.2618C53.8161 62.2521 53.8111 60.2488 53.8042 58.2461C54.2161 58.5724 54.6146 58.8797 55.0001 59.1787Z" fill="#D2AE6D"/>
<path d="M39.661 59.5616C39.6452 62.8325 39.6293 66.1208 39.6154 69.4139C38.278 69.1957 36.846 68.953 35.3179 68.6892C35.3441 65.0045 35.3724 61.3445 35.3986 57.6914C36.9158 58.3656 38.3354 58.9854 39.661 59.5616Z" fill="#D2AE6D"/>
<path d="M44.9948 61.8991C44.9913 64.7052 44.9844 67.5118 44.981 70.3319C44.1374 70.1868 43.2505 70.0383 42.3145 69.871C42.3253 66.8149 42.3357 63.7747 42.3441 60.7344C43.2752 61.1502 44.1567 61.5327 44.9948 61.8991Z" fill="#D2AE6D"/>
<path d="M49.2435 63.7798C49.245 66.2092 49.247 68.6382 49.2484 71.0795C48.6198 70.9692 47.9654 70.8558 47.2788 70.732C47.2788 68.1195 47.2808 65.5143 47.2823 62.9141C47.9654 63.216 48.6183 63.5041 49.2435 63.7798Z" fill="#D2AE6D"/>
<path d="M52.4802 65.2245C52.4852 67.3653 52.4907 69.5096 52.4956 71.6559C52.0105 71.5704 51.5056 71.4847 50.9819 71.3872C50.9765 69.1047 50.9731 66.8258 50.968 64.5508C51.4932 64.7899 51.9946 65.0096 52.4802 65.2245Z" fill="#D2AE6D"/>
<path d="M55.031 66.3587C55.038 68.2728 55.0463 70.1899 55.0532 72.1056C54.6656 72.0408 54.2657 71.973 53.8504 71.8962C53.8434 69.8687 53.838 67.8446 53.8311 65.8281C54.2449 66.0112 54.6429 66.1874 55.031 66.3587Z" fill="#D2AE6D"/>
<path d="M39.5995 72.3294C39.5836 75.6577 39.5679 78.9915 39.5525 82.3353C38.2026 82.5901 36.7568 82.8541 35.2129 83.1282C35.2391 79.386 35.2673 75.6613 35.293 71.9453C36.8265 72.0869 38.26 72.214 39.5995 72.3294Z" fill="#D2AE6D"/>
<path d="M44.9759 72.8282C44.9704 75.6674 44.9655 78.5225 44.9621 81.3776C44.1131 81.5312 43.2191 81.6921 42.2761 81.8524C42.2851 78.7547 42.2954 75.6605 42.3059 72.5781C43.2453 72.6658 44.1309 72.7479 44.9759 72.8282Z" fill="#D2AE6D"/>
<path d="M49.2497 73.239C49.2512 75.6981 49.2546 78.1548 49.2567 80.6258C48.6246 80.7356 47.9662 80.8545 47.2727 80.9698C47.2747 78.3241 47.2762 75.6837 47.2781 73.0469C47.9642 73.1187 48.621 73.1835 49.2497 73.239Z" fill="#D2AE6D"/>
<path d="M52.5 73.561C52.5069 75.7226 52.5124 77.8898 52.5173 80.0583C52.0288 80.1474 51.5223 80.2385 50.9947 80.3291C50.9913 78.0154 50.9878 75.7123 50.9844 73.4141C51.51 73.465 52.0144 73.5135 52.5 73.561Z" fill="#D2AE6D"/>
<path d="M55.0603 73.8033C55.0672 75.7363 55.0761 77.6642 55.083 79.5987C54.6935 79.672 54.2921 79.7437 53.8783 79.817C53.8713 77.7722 53.8624 75.7328 53.8569 73.6914C54.2708 73.7315 54.6707 73.7666 55.0603 73.8033Z" fill="#D2AE6D"/>
<path d="M104.138 20V80.5932C105.475 87.0157 107.74 89.5214 114.445 89.2298V92.1548H94.8059V89.6472C95.3628 89.3695 95.9197 89.0903 96.4769 88.8126V39.9199L74.8863 58.4456V80.0358H70.9851V52.7352L104.138 20.0001V20Z" fill="#3E4095"/>
<path d="M91.0913 47.3156C91.1086 50.5464 91.1225 53.7787 91.1382 57.0264C92.462 56.3611 93.878 55.6434 95.3938 54.8682C95.3676 51.2483 95.3398 47.6319 95.3136 44.0312C93.8132 45.2118 92.406 46.3047 91.0913 47.3156Z" fill="#D2AE6D"/>
<path d="M85.7993 51.4153C85.8027 54.1828 85.8102 56.9542 85.8137 59.7362C86.6497 59.31 87.5298 58.8645 88.4609 58.3828C88.4504 55.3738 88.4396 52.3721 88.4311 49.3789C87.5056 50.0986 86.6309 50.7762 85.7993 51.4153Z" fill="#D2AE6D"/>
<path d="M81.5755 54.6934C81.5741 57.0892 81.5721 59.4939 81.5701 61.9055C82.1938 61.5857 82.8486 61.2506 83.5298 60.8997C83.5298 58.3223 83.5264 55.7483 83.5278 53.1797C82.8486 53.7084 82.1972 54.2132 81.5755 54.6934Z" fill="#D2AE6D"/>
<path d="M78.3549 57.1966C78.348 59.3152 78.3426 61.4333 78.3372 63.5637C78.8213 63.3172 79.3242 63.0574 79.8458 62.7901C79.8513 60.5304 79.8548 58.2762 79.8582 56.0234C79.336 56.4339 78.8365 56.8228 78.3549 57.1966Z" fill="#D2AE6D"/>
<path d="M75.8113 59.1787C75.8045 61.0765 75.7955 62.9783 75.7886 64.8781C76.1762 64.6846 76.5746 64.4802 76.9865 64.2618C76.9953 62.2521 77.0003 60.2488 77.0072 58.2461C76.5954 58.5724 76.1975 58.8797 75.8113 59.1787Z" fill="#D2AE6D"/>
<path d="M91.1519 59.5616C91.1672 62.8325 91.1831 66.1208 91.1969 69.4139C92.5349 69.1957 93.9665 68.953 95.4945 68.6892C95.4682 65.0045 95.4406 61.3445 95.4144 57.6914C93.8986 58.3656 92.477 58.9854 91.1519 59.5616Z" fill="#D2AE6D"/>
<path d="M85.8174 61.8991C85.8208 64.7052 85.8277 67.5118 85.8313 70.3319C86.6747 70.1868 87.5617 70.0383 88.4978 69.871C88.4874 66.8149 88.4769 63.7747 88.4681 60.7344C87.5375 61.1502 86.6554 61.5327 85.8174 61.8991Z" fill="#D2AE6D"/>
<path d="M81.5699 63.7798C81.568 66.2092 81.5665 68.6382 81.5645 71.0795C82.1931 70.9692 82.8481 70.8558 83.534 70.732C83.534 68.1195 83.5326 65.5143 83.5306 62.9141C82.8481 63.216 82.1951 63.5041 81.5699 63.7798Z" fill="#D2AE6D"/>
<path d="M78.3322 65.2245C78.3268 67.3653 78.3213 69.5096 78.3164 71.6559C78.802 71.5704 79.3064 71.4847 79.8301 71.3872C79.8356 69.1047 79.839 66.8258 79.8444 64.5508C79.3188 64.7899 78.8173 65.0096 78.3322 65.2245Z" fill="#D2AE6D"/>
<path d="M75.782 66.3587C75.7745 68.2728 75.7661 70.1899 75.7593 72.1056C76.1469 72.0408 76.5468 71.973 76.962 71.8962C76.969 69.8687 76.9744 67.8446 76.9813 65.8281C76.5675 66.0112 76.1696 66.1874 75.782 66.3587Z" fill="#D2AE6D"/>
<path d="M91.2134 72.3294C91.2288 75.6577 91.2445 78.9915 91.2604 82.3353C92.6103 82.5901 94.0561 82.8541 95.5995 83.1282C95.5733 79.386 95.5455 75.6613 95.5193 71.9453C93.9864 72.0869 92.5524 72.214 91.2134 72.3294Z" fill="#D2AE6D"/>
<path d="M85.8364 72.8282C85.8434 75.6674 85.8468 78.5225 85.8503 81.3776C86.6993 81.5312 87.5932 81.6921 88.5361 81.8524C88.5273 78.7547 88.5168 75.6605 88.5065 72.5781C87.5689 72.6658 86.6819 72.7479 85.8364 72.8282Z" fill="#D2AE6D"/>
<path d="M81.5626 73.239C81.5612 75.6981 81.5577 78.1548 81.5557 80.6258C82.1879 80.7356 82.8462 80.8545 83.5396 80.9698C83.5362 78.3241 83.5362 75.6837 83.5342 73.0469C82.8481 73.1187 82.1913 73.1835 81.5626 73.239Z" fill="#D2AE6D"/>
<path d="M78.3118 73.561C78.3049 75.7226 78.2999 77.8898 78.2944 80.0583C78.7836 80.1474 79.2879 80.2385 79.8171 80.3291C79.8205 78.0154 79.8241 75.7123 79.8275 73.4141C79.3022 73.465 78.7973 73.5135 78.3118 73.561Z" fill="#D2AE6D"/>
<path d="M75.7521 73.8033C75.7431 75.7363 75.7362 77.6642 75.7292 79.5987C76.1183 79.672 76.5203 79.7437 76.9341 79.817C76.9411 77.7722 76.9499 75.7328 76.9549 73.6914C76.5411 73.7315 76.1411 73.7666 75.7521 73.8033Z" fill="#D2AE6D"/>
<path d="M20.7666 105.383L18.1788 100.532V104.842C18.1788 104.95 18.2036 105.03 18.2506 105.084C18.3011 105.139 18.3868 105.182 18.509 105.219V105.383H16.4448V105.219C16.5691 105.182 16.6543 105.139 16.7032 105.084C16.7503 105.03 16.775 104.95 16.775 104.842V98.8978C16.775 98.7944 16.7503 98.7162 16.7032 98.6618C16.6543 98.6058 16.5691 98.5622 16.4448 98.5277V98.3633H19.1514V98.5277C18.9911 98.5677 18.909 98.6637 18.909 98.8103C18.909 98.8785 18.9352 98.9568 18.9821 99.0479L20.8943 102.675L22.8328 99.1088C22.9199 98.9498 22.962 98.8365 22.962 98.7647C22.962 98.6237 22.8764 98.545 22.705 98.5277V98.3633H25.3593V98.5277C25.2369 98.5622 25.1499 98.6058 25.1008 98.6618C25.0538 98.7162 25.0296 98.7944 25.0296 98.8978V104.842C25.0296 104.95 25.0538 105.03 25.1008 105.084C25.1499 105.139 25.2369 105.182 25.3593 105.219V105.383H23.1659V105.219C23.2882 105.186 23.3723 105.144 23.4213 105.086C23.4719 105.03 23.4961 104.95 23.4961 104.842V100.532L20.7666 105.383ZM32.5401 100.148V103.197C32.5401 103.893 32.4021 104.404 32.1298 104.73C31.6862 105.249 30.8532 105.506 29.6271 105.506C28.8084 105.506 28.1465 105.381 27.6416 105.13C27.2784 104.95 27.0303 104.69 26.8962 104.355C26.772 104.045 26.711 103.66 26.711 103.197V100.148C26.711 100.041 26.6863 99.9612 26.6392 99.9051C26.5903 99.8513 26.5051 99.8037 26.3808 99.7671V99.624H28.4222V99.7671C28.2965 99.8022 28.2094 99.8459 28.1604 99.9038C28.1133 99.9612 28.0886 100.041 28.0886 100.148V102.921C28.0886 103.242 28.1169 103.488 28.1743 103.66C28.2322 103.831 28.3297 103.972 28.4693 104.082C28.7505 104.306 29.1574 104.416 29.6885 104.416C30.2211 104.416 30.6279 104.306 30.9092 104.082C31.0453 103.972 31.1413 103.831 31.1972 103.66C31.2512 103.488 31.2793 103.242 31.2793 102.921V100.148C31.2793 100.041 31.2566 99.9612 31.2091 99.9051C31.164 99.8513 31.075 99.8037 30.9492 99.7671V99.624H32.8698V99.7671C32.746 99.8022 32.6605 99.8459 32.6114 99.9038C32.5643 99.9612 32.5401 100.041 32.5401 100.148ZM35.477 103.019V104.854C35.477 104.961 35.5017 105.043 35.5488 105.099C35.5977 105.155 35.6834 105.202 35.8072 105.24V105.383H33.7677V105.24C33.89 105.209 33.9736 105.163 34.0227 105.106C34.0731 105.048 34.0994 104.966 34.0994 104.858V100.148C34.0994 100.041 34.0731 99.9612 34.0261 99.9051C33.9771 99.8513 33.8935 99.8037 33.7677 99.7671V99.624H37.5431C38.0336 99.624 38.4073 99.6483 38.6642 99.6974C38.9207 99.7483 39.1513 99.8369 39.3538 99.9681C39.7695 100.239 39.9754 100.682 39.9754 101.295C39.9754 101.761 39.8477 102.126 39.5929 102.389C39.3364 102.652 38.9241 102.841 38.3548 102.958L39.4463 104.475C39.6438 104.755 39.8042 104.947 39.9215 105.046C40.0399 105.147 40.1745 105.212 40.3244 105.24V105.383H37.9044V105.24C38.0841 105.191 38.1731 105.114 38.1731 105.01C38.1731 104.934 38.1172 104.818 38.0074 104.666L36.8565 103.019H35.477ZM35.477 101.974H37.5534C37.8692 101.974 38.1034 101.94 38.2519 101.87C38.4647 101.779 38.5717 101.596 38.5717 101.321C38.5717 101.077 38.4979 100.908 38.3479 100.812C38.1994 100.716 37.9341 100.668 37.5534 100.668H35.477V101.974ZM45.6298 103.944H42.9792L42.6822 104.571C42.6089 104.722 42.5737 104.84 42.5737 104.925C42.5737 105.09 42.6835 105.195 42.9038 105.24V105.383H40.7838V105.24C40.9129 105.219 41.0091 105.179 41.0753 105.121C41.1383 105.062 41.212 104.948 41.2971 104.776L43.4013 100.518C43.48 100.358 43.5202 100.216 43.5202 100.096C43.5202 99.9557 43.4241 99.8458 43.232 99.7671V99.624H45.4689V99.7671C45.2803 99.8423 45.1863 99.9591 45.1863 100.117C45.1863 100.23 45.2279 100.369 45.3155 100.532L47.4945 104.664C47.6167 104.889 47.7093 105.032 47.7776 105.099C47.8459 105.165 47.9523 105.214 48.0919 105.24V105.383H45.7417V105.24C45.965 105.202 46.0749 105.097 46.0749 104.927C46.0749 104.821 46.0332 104.69 45.9457 104.531L45.6298 103.944ZM45.214 103.135L44.2711 101.285L43.3737 103.135H45.214ZM48.8987 104.858V100.148C48.8987 100.041 48.874 99.9612 48.827 99.9051C48.778 99.8513 48.6943 99.8037 48.5687 99.7671V99.624H51.9494C52.6514 99.624 53.2067 99.7111 53.6101 99.8845C54.1809 100.132 54.5898 100.539 54.8412 101.11C55.0139 101.507 55.1011 101.973 55.1011 102.502C55.1011 103.487 54.808 104.234 54.223 104.74C53.9591 104.968 53.6468 105.13 53.2889 105.233C52.9306 105.332 52.4836 105.383 51.9494 105.383H48.5687V105.24C48.6909 105.209 48.7746 105.163 48.8235 105.106C48.874 105.048 48.8987 104.966 48.8987 104.858ZM50.2783 104.339H51.7484C52.4241 104.339 52.9152 104.183 53.2206 103.875C53.5383 103.553 53.6973 103.095 53.6973 102.502C53.6973 101.91 53.5383 101.453 53.2206 101.131C53.0617 100.97 52.8661 100.852 52.634 100.778C52.3999 100.705 52.1048 100.668 51.7484 100.668H50.2783V104.339Z" fill="#3E4095"/>
<path d="M64.9984 101.706C65.786 102.005 66.1825 102.558 66.1825 103.363C66.1825 104.004 65.9517 104.507 65.491 104.87C65.2602 105.052 64.9895 105.182 64.6821 105.263C64.3747 105.343 63.9961 105.383 63.5436 105.383H58.7432V105.219C58.8674 105.184 58.9531 105.139 59.0016 105.085C59.0491 105.03 59.0733 104.95 59.0733 104.844V98.9048C59.0733 98.7964 59.0491 98.7162 59.0016 98.6623C58.9531 98.6078 58.8674 98.5622 58.7432 98.5277V98.3633H63.4947C63.9525 98.3633 64.3193 98.3985 64.5965 98.4662C64.8762 98.5346 65.1173 98.6513 65.3266 98.8157C65.7424 99.1405 65.9499 99.6122 65.9499 100.226C65.9499 100.911 65.632 101.406 64.9984 101.706ZM60.6064 101.156H63.2956C63.7045 101.156 63.9891 101.096 64.1495 100.976C64.3312 100.838 64.4222 100.626 64.4222 100.338C64.4222 100.043 64.3366 99.832 64.1654 99.7082C63.994 99.5839 63.7045 99.5196 63.2956 99.5196H60.6064V101.156ZM60.6064 104.227H63.2065C63.6921 104.227 64.0396 104.159 64.2524 104.027C64.4955 103.873 64.6178 103.62 64.6178 103.27C64.6178 102.925 64.4955 102.671 64.2524 102.512C64.0431 102.38 63.6957 102.313 63.2065 102.313H60.6064V104.227ZM73.1515 100.148V103.199C73.1515 103.894 73.0135 104.404 72.7392 104.73C72.2976 105.249 71.4645 105.507 70.239 105.507C69.4198 105.507 68.7579 105.381 68.2535 105.13C67.8901 104.95 67.6422 104.69 67.5076 104.355C67.3838 104.046 67.3224 103.66 67.3224 103.199V100.148C67.3224 100.041 67.2982 99.9612 67.2511 99.9072C67.2022 99.8513 67.1165 99.8042 66.9927 99.7676V99.6241H69.0341V99.7676C68.9084 99.8022 68.8207 99.8458 68.7718 99.9051C68.7247 99.9612 68.7005 100.041 68.7005 100.148V102.921C68.7005 103.242 68.7283 103.488 68.7842 103.66C68.8436 103.831 68.9416 103.973 69.0811 104.082C69.3624 104.306 69.7693 104.416 70.2999 104.416C70.8325 104.416 71.2393 104.306 71.5206 104.082C71.6567 103.973 71.7527 103.831 71.8086 103.66C71.8631 103.488 71.8907 103.242 71.8907 102.921V100.148C71.8907 100.041 71.868 99.9612 71.821 99.9072C71.7754 99.8513 71.6863 99.8042 71.5605 99.7676V99.6241H73.4817V99.7676C73.3574 99.8022 73.2719 99.8458 73.2233 99.9051C73.1757 99.9612 73.1515 100.041 73.1515 100.148ZM76.0889 100.148V104.854C76.0889 104.961 76.1131 105.041 76.1602 105.099C76.2091 105.155 76.2948 105.204 76.4185 105.24V105.383H74.3791V105.24C74.5013 105.209 74.585 105.165 74.6341 105.106C74.6845 105.048 74.7093 104.966 74.7093 104.86V100.148C74.7093 100.041 74.6845 99.9612 74.6375 99.9072C74.5885 99.8513 74.5049 99.8042 74.3791 99.7676V99.6241H76.4185V99.7676C76.2948 99.8022 76.2091 99.8458 76.1602 99.9051C76.1131 99.9612 76.0889 100.041 76.0889 100.148ZM79.1375 104.339H82.3614C82.4713 104.339 82.5535 104.315 82.6075 104.268C82.6633 104.22 82.7104 104.131 82.747 104.006H82.8852V105.714H82.747C82.7124 105.589 82.6683 105.506 82.609 105.455C82.5535 105.408 82.4713 105.383 82.3614 105.383H77.4298V105.24C77.55 105.209 77.6342 105.165 77.6847 105.106C77.7352 105.048 77.7599 104.966 77.7599 104.86V100.148C77.7599 100.041 77.7352 99.9612 77.6866 99.9072C77.6377 99.8513 77.554 99.8042 77.4298 99.7676V99.6241H79.4677V99.7676C79.3455 99.8022 79.2583 99.8458 79.2093 99.9051C79.1623 99.9612 79.1375 100.041 79.1375 100.148V104.339ZM83.8073 104.86V100.148C83.8073 100.041 83.7826 99.9612 83.7355 99.9072C83.6866 99.8513 83.6009 99.8042 83.4771 99.7676V99.6241H86.856C87.5598 99.6241 88.1133 99.7116 88.5167 99.8845C89.0879 100.132 89.4963 100.539 89.7478 101.11C89.9225 101.507 90.0096 101.973 90.0096 102.502C90.0096 103.487 89.7166 104.234 89.1294 104.741C88.8656 104.968 88.5553 105.13 88.1954 105.233C87.8375 105.333 87.392 105.383 86.856 105.383H83.4771V105.24C83.5975 105.209 83.683 105.165 83.7321 105.106C83.7826 105.048 83.8073 104.966 83.8073 104.86ZM85.1849 104.339H86.657C87.3326 104.339 87.8217 104.185 88.1272 103.876C88.4449 103.555 88.6057 103.096 88.6057 102.502C88.6057 101.912 88.4449 101.453 88.1272 101.131C87.9702 100.97 87.7727 100.852 87.5405 100.778C87.3084 100.705 87.0134 100.668 86.657 100.668H85.1849V104.339ZM92.5975 100.148V104.854C92.5975 104.961 92.6222 105.041 92.6693 105.099C92.7182 105.155 92.8039 105.204 92.9277 105.24V105.383H90.8897V105.24C91.0104 105.209 91.0941 105.165 91.1432 105.106C91.1936 105.048 91.2199 104.966 91.2199 104.86V100.148C91.2199 100.041 91.1936 99.9612 91.1466 99.9072C91.0976 99.8513 91.014 99.8042 90.8897 99.7676V99.6241H92.9277V99.7676C92.8039 99.8022 92.7182 99.8458 92.6693 99.9051C92.6222 99.9612 92.5975 100.041 92.5975 100.148ZM95.5244 101.589V104.856C95.5244 104.961 95.5486 105.043 95.5996 105.1C95.6482 105.16 95.7323 105.205 95.8546 105.24V105.383H93.9389V105.24C94.0591 105.209 94.1429 105.165 94.1939 105.106C94.2443 105.048 94.2685 104.966 94.2685 104.86V100.148C94.2685 100.041 94.2443 99.9612 94.1973 99.9072C94.1463 99.8513 94.0626 99.8042 93.9389 99.7676V99.6241H96.1511V99.7676C95.999 99.8042 95.9243 99.8721 95.9243 99.9681C95.9243 100.05 95.9802 100.146 96.0881 100.256L99.174 103.321V100.148C99.174 100.041 99.1497 99.9612 99.1022 99.9051C99.0517 99.8458 98.9681 99.8022 98.8438 99.7676V99.6241H100.759V99.7676C100.636 99.8022 100.55 99.8458 100.501 99.9051C100.454 99.9612 100.429 100.041 100.429 100.148V104.854C100.429 104.961 100.454 105.041 100.501 105.099C100.55 105.155 100.636 105.204 100.759 105.24V105.383H98.6953V105.24C98.8472 105.211 98.9225 105.146 98.9225 105.05C98.9225 105.003 98.9017 104.954 98.8611 104.903C98.8196 104.853 98.7236 104.751 98.5765 104.603L95.5244 101.589ZM106.966 103.16H105.654C105.544 103.16 105.462 103.187 105.406 103.234C105.349 103.283 105.303 103.366 105.268 103.491H105.13V101.968H105.268C105.303 102.088 105.349 102.17 105.406 102.221C105.462 102.268 105.544 102.293 105.654 102.293H108.398V102.441C108.275 102.476 108.191 102.527 108.143 102.591C108.092 102.656 108.068 102.748 108.068 102.869V104.082C108.068 104.19 108.092 104.273 108.143 104.331C108.191 104.388 108.275 104.433 108.398 104.468V104.587C107.285 105.2 106.178 105.507 105.074 105.507C104.121 105.507 103.349 105.282 102.761 104.831C102.441 104.587 102.185 104.281 101.987 103.918C101.758 103.485 101.643 103.024 101.643 102.535C101.643 101.854 101.853 101.254 102.27 100.724C102.922 99.9087 103.885 99.5003 105.162 99.5003C105.721 99.5003 106.358 99.624 107.076 99.8706C107.36 99.9666 107.525 100.016 107.574 100.016C107.631 100.016 107.701 99.9874 107.779 99.9334L107.902 99.9998L107.219 101.449L107.095 101.388V101.357C107.095 101.231 106.967 101.1 106.714 100.967C106.245 100.716 105.742 100.592 105.202 100.592C104.582 100.592 104.074 100.761 103.674 101.1C103.257 101.456 103.047 101.936 103.047 102.541C103.047 103.104 103.237 103.558 103.618 103.897C104.009 104.243 104.558 104.416 105.263 104.416C105.936 104.416 106.503 104.292 106.966 104.04V103.16ZM114.894 100.143L114.197 101.486L114.074 101.419C114.074 101.307 114.038 101.218 113.966 101.152C113.771 100.977 113.483 100.833 113.102 100.721C112.721 100.607 112.335 100.552 111.946 100.552C111.611 100.552 111.317 100.597 111.061 100.689C110.691 100.822 110.503 101.016 110.503 101.271C110.503 101.439 110.593 101.558 110.771 101.627C110.949 101.697 111.294 101.753 111.804 101.795L112.618 101.856C113.329 101.912 113.867 102.048 114.239 102.268C114.445 102.39 114.614 102.556 114.747 102.76C114.916 103.019 115 103.307 115 103.63C115 104.217 114.737 104.678 114.207 105.019C113.705 105.343 113.021 105.507 112.161 105.507C111.291 105.507 110.454 105.322 109.646 104.956C109.59 104.933 109.543 104.92 109.507 104.92C109.438 104.92 109.374 104.961 109.316 105.043L109.187 104.992L109.779 103.583L109.906 103.633V103.676C109.906 103.765 109.941 103.841 110.011 103.902C110.181 104.053 110.477 104.183 110.9 104.295C111.323 104.405 111.738 104.461 112.15 104.461C112.514 104.461 112.838 104.414 113.126 104.318C113.483 104.203 113.663 104.013 113.663 103.752C113.663 103.544 113.538 103.398 113.292 103.318C113.126 103.262 112.829 103.216 112.402 103.178L111.593 103.11C111.158 103.077 110.827 103.033 110.596 102.977C110.367 102.923 110.166 102.841 109.996 102.736C109.775 102.6 109.604 102.411 109.48 102.174C109.358 101.94 109.295 101.68 109.295 101.399C109.295 100.768 109.566 100.286 110.109 99.9542C110.601 99.6523 111.212 99.5003 111.941 99.5003C112.335 99.5003 112.702 99.5438 113.044 99.633C113.385 99.7201 113.792 99.8721 114.267 100.092C114.407 100.157 114.503 100.19 114.558 100.19C114.614 100.19 114.684 100.152 114.77 100.076L114.894 100.143Z" fill="#3E4095"/>
<path d="M16 96.1448H114.813V94.8945H16V96.1448Z" fill="#3E4095"/>
<path d="M16 109.184H114.813V107.934H16V109.184Z" fill="#3E4095"/>
</svg>
