<svg width="130" height="130" viewBox="0 0 130 130" fill="none" xmlns="http://www.w3.org/2000/svg">
<g opacity="0.3">
<path d="M25.6745 20V80.5932C24.3371 87.0157 22.0719 89.5214 15.3667 89.2298V92.1548H35.0067V89.6472C34.4493 89.3695 33.8924 89.0903 33.3355 88.8126V39.9199L54.9258 58.4456V80.0358H58.8269V52.7352L25.6745 20.0001V20Z" fill="white"/>
<path d="M38.7215 47.3156C38.7042 50.5464 38.6898 53.7787 38.6744 57.0264C37.3508 56.3611 35.9346 55.6434 34.4185 54.8682C34.4447 51.2483 34.4709 47.6319 34.4972 44.0312C35.9989 45.2118 37.4062 46.3047 38.7215 47.3156Z" fill="white"/>
<path d="M44.0127 51.4192C44.0091 54.1867 44.0023 56.9582 43.9988 59.7401C43.1623 59.3139 42.2822 58.8684 41.3511 58.3867C41.3619 55.3777 41.3724 52.376 41.3807 49.3828C42.3064 50.1025 43.1816 50.7801 44.0127 51.4192Z" fill="white"/>
<path d="M48.2364 54.6934C48.2384 57.0892 48.2404 59.4939 48.2418 61.9055C47.6187 61.5857 46.9638 61.2506 46.2827 60.8997C46.2827 58.3223 46.2841 55.7483 46.2841 53.1797C46.9638 53.7084 47.6151 54.2132 48.2364 54.6934V54.6934Z" fill="white"/>
<path d="M51.458 57.1966C51.4649 59.3152 51.4699 61.4333 51.4753 63.5637C50.9917 63.3172 50.4888 63.0574 49.9666 62.7901C49.961 60.5304 49.9576 58.2762 49.9541 56.0234C50.4764 56.4339 50.9758 56.8228 51.458 57.1966V57.1966Z" fill="white"/>
<path d="M54.0001 59.1787C54.0071 61.0765 54.016 62.9783 54.023 64.8781C53.6354 64.6846 53.2373 64.4802 52.825 64.2618C52.8161 62.2521 52.8111 60.2488 52.8042 58.2461C53.2161 58.5724 53.6146 58.8797 54.0001 59.1787Z" fill="white"/>
<path d="M38.661 59.5655C38.6452 62.8364 38.6293 66.1247 38.6154 69.4178C37.278 69.1996 35.846 68.957 34.3179 68.6931C34.3441 65.0084 34.3724 61.3484 34.3986 57.6953C35.9158 58.3695 37.3354 58.9893 38.661 59.5655V59.5655Z" fill="white"/>
<path d="M43.9948 61.8991C43.9913 64.7052 43.9844 67.5118 43.981 70.3319C43.1374 70.1868 42.2505 70.0383 41.3145 69.871C41.3253 66.8149 41.3357 63.7747 41.3441 60.7344C42.2752 61.1502 43.1567 61.5327 43.9948 61.8991Z" fill="white"/>
<path d="M48.2435 63.7798C48.245 66.2092 48.247 68.6382 48.2484 71.0795C47.6198 70.9692 46.9654 70.8558 46.2788 70.732C46.2788 68.1195 46.2808 65.5143 46.2823 62.9141C46.9654 63.216 47.6183 63.5041 48.2435 63.7798Z" fill="white"/>
<path d="M51.4805 65.2245C51.4854 67.3653 51.4909 69.5096 51.4959 71.6559C51.0108 71.5704 50.5059 71.4847 49.9821 71.3872C49.9767 69.1047 49.9733 66.8258 49.9683 64.5508C50.4935 64.7899 50.9949 65.0096 51.4805 65.2245Z" fill="white"/>
<path d="M54.031 66.3587C54.038 68.2728 54.0463 70.1899 54.0532 72.1056C53.6656 72.0408 53.2657 71.973 52.8504 71.8962C52.8434 69.8687 52.838 67.8446 52.8311 65.8281C53.2449 66.0112 53.6429 66.1874 54.031 66.3587V66.3587Z" fill="white"/>
<path d="M38.5995 72.3294C38.5836 75.6577 38.5679 78.9915 38.5525 82.3353C37.2026 82.5901 35.7568 82.8541 34.2129 83.1282C34.2391 79.386 34.2673 75.6613 34.293 71.9453C35.8265 72.0869 37.26 72.214 38.5995 72.3294V72.3294Z" fill="white"/>
<path d="M43.9757 72.8282C43.9701 75.6674 43.9652 78.5225 43.9618 81.3776C43.1128 81.5312 42.2188 81.6921 41.2759 81.8524C41.2848 78.7547 41.2952 75.6605 41.3057 72.5781C42.2451 72.6658 43.1306 72.7479 43.9757 72.8282V72.8282Z" fill="white"/>
<path d="M48.2495 73.239C48.251 75.6981 48.2544 78.1548 48.2564 80.6258C47.6243 80.7356 46.966 80.8545 46.2725 80.9698C46.2745 78.3241 46.276 75.6837 46.2779 73.0469C46.964 73.1187 47.6208 73.1835 48.2495 73.239Z" fill="white"/>
<path d="M51.5 73.561C51.5069 75.7226 51.5124 77.8898 51.5173 80.0583C51.0288 80.1474 50.5223 80.2385 49.9947 80.3291C49.9913 78.0154 49.9878 75.7123 49.9844 73.4141C50.51 73.465 51.0144 73.5135 51.5 73.561Z" fill="white"/>
<path d="M54.0603 73.7994C54.0672 75.7324 54.0761 77.6603 54.083 79.5948C53.6935 79.6681 53.2921 79.7398 52.8783 79.8131C52.8713 77.7683 52.8624 75.7289 52.8569 73.6875C53.2708 73.7276 53.6707 73.7627 54.0603 73.7994V73.7994Z" fill="white"/>
<path d="M103.137 20V80.5932C104.475 87.0157 106.74 89.5214 113.445 89.2298V92.1548H93.8056V89.6472C94.3625 89.3695 94.9194 89.0903 95.4767 88.8126V39.9199L73.886 58.4456V80.0358H69.9849V52.7352L103.137 20.0001V20Z" fill="white"/>
<path d="M90.0913 47.3156C90.1086 50.5464 90.1225 53.7787 90.1382 57.0264C91.462 56.3611 92.878 55.6434 94.3938 54.8682C94.3676 51.2483 94.3398 47.6319 94.3136 44.0312C92.8132 45.2118 91.406 46.3047 90.0913 47.3156V47.3156Z" fill="white"/>
<path d="M84.7993 51.4192C84.8027 54.1867 84.8102 56.9582 84.8137 59.7401C85.6497 59.3139 86.5298 58.8684 87.4609 58.3867C87.4504 55.3777 87.4396 52.376 87.4311 49.3828C86.5056 50.1025 85.6309 50.7801 84.7993 51.4192Z" fill="white"/>
<path d="M80.5757 54.6934C80.5744 57.0892 80.5723 59.4939 80.5703 61.9055C81.1941 61.5857 81.8489 61.2506 82.53 60.8997C82.53 58.3223 82.5266 55.7483 82.528 53.1797C81.8489 53.7084 81.1975 54.2132 80.5757 54.6934Z" fill="white"/>
<path d="M77.3547 57.1966C77.3478 59.3152 77.3423 61.4333 77.3369 63.5637C77.821 63.3172 78.3239 63.0574 78.8456 62.7901C78.851 60.5304 78.8546 58.2762 78.858 56.0234C78.3358 56.4339 77.8363 56.8228 77.3547 57.1966V57.1966Z" fill="white"/>
<path d="M74.8113 59.1787C74.8045 61.0765 74.7955 62.9783 74.7886 64.8781C75.1762 64.6846 75.5746 64.4802 75.9865 64.2618C75.9953 62.2521 76.0003 60.2488 76.0072 58.2461C75.5954 58.5724 75.1975 58.8797 74.8113 59.1787Z" fill="white"/>
<path d="M90.1519 59.5655C90.1672 62.8364 90.1831 66.1247 90.1969 69.4178C91.5349 69.1996 92.9665 68.957 94.4945 68.6931C94.4682 65.0084 94.4406 61.3484 94.4144 57.6953C92.8986 58.3695 91.477 58.9893 90.1519 59.5655V59.5655Z" fill="white"/>
<path d="M84.8174 61.8991C84.8208 64.7052 84.8277 67.5118 84.8313 70.3319C85.6747 70.1868 86.5617 70.0383 87.4978 69.871C87.4874 66.8149 87.4769 63.7747 87.4681 60.7344C86.5375 61.1502 85.6554 61.5327 84.8174 61.8991Z" fill="white"/>
<path d="M80.5699 63.7798C80.568 66.2092 80.5665 68.6382 80.5645 71.0795C81.1931 70.9692 81.8481 70.8558 82.534 70.732C82.534 68.1195 82.5326 65.5143 82.5306 62.9141C81.8481 63.216 81.1951 63.5041 80.5699 63.7798V63.7798Z" fill="white"/>
<path d="M77.3322 65.2245C77.3268 67.3653 77.3213 69.5096 77.3164 71.6559C77.802 71.5704 78.3064 71.4847 78.8301 71.3872C78.8356 69.1047 78.839 66.8258 78.8444 64.5508C78.3188 64.7899 77.8173 65.0096 77.3322 65.2245Z" fill="white"/>
<path d="M74.782 66.3587C74.7745 68.2728 74.7661 70.1899 74.7593 72.1056C75.1469 72.0408 75.5468 71.973 75.962 71.8962C75.969 69.8687 75.9744 67.8446 75.9813 65.8281C75.5675 66.0112 75.1696 66.1874 74.782 66.3587V66.3587Z" fill="white"/>
<path d="M90.2134 72.3294C90.2288 75.6577 90.2445 78.9915 90.2604 82.3353C91.6103 82.5901 93.0561 82.8541 94.5995 83.1282C94.5733 79.386 94.5455 75.6613 94.5193 71.9453C92.9864 72.0869 91.5524 72.214 90.2134 72.3294Z" fill="white"/>
<path d="M84.8364 72.8282C84.8434 75.6674 84.8468 78.5225 84.8503 81.3776C85.6993 81.5312 86.5932 81.6921 87.5361 81.8524C87.5273 78.7547 87.5168 75.6605 87.5065 72.5781C86.5689 72.6658 85.6819 72.7479 84.8364 72.8282Z" fill="white"/>
<path d="M80.5626 73.239C80.5612 75.6981 80.5577 78.1548 80.5557 80.6258C81.1879 80.7356 81.8462 80.8545 82.5396 80.9698C82.5362 78.3241 82.5362 75.6837 82.5342 73.0469C81.8481 73.1187 81.1913 73.1835 80.5626 73.239V73.239Z" fill="white"/>
<path d="M77.3118 73.561C77.3049 75.7226 77.2999 77.8898 77.2944 80.0583C77.7836 80.1474 78.2879 80.2385 78.8171 80.3291C78.8205 78.0154 78.8241 75.7123 78.8275 73.4141C78.3022 73.465 77.7973 73.5135 77.3118 73.561V73.561Z" fill="white"/>
<path d="M74.7523 73.7994C74.7434 75.7324 74.7364 77.6603 74.7295 79.5948C75.1186 79.6681 75.5205 79.7398 75.9344 79.8131C75.9413 77.7683 75.9501 75.7289 75.9552 73.6875C75.5414 73.7276 75.1413 73.7627 74.7523 73.7994V73.7994Z" fill="white"/>
<path d="M19.7666 105.383L17.1788 100.532V104.842C17.1788 104.95 17.2036 105.03 17.2506 105.084C17.3011 105.139 17.3868 105.182 17.509 105.219V105.383H15.4448V105.219C15.5691 105.182 15.6543 105.139 15.7032 105.084C15.7503 105.03 15.775 104.95 15.775 104.842V98.8978C15.775 98.7944 15.7503 98.7162 15.7032 98.6618C15.6543 98.6058 15.5691 98.5622 15.4448 98.5277V98.3633H18.1514V98.5277C17.9911 98.5677 17.909 98.6637 17.909 98.8103C17.909 98.8785 17.9352 98.9568 17.9821 99.0479L19.8943 102.675L21.8328 99.1088C21.9199 98.9498 21.962 98.8365 21.962 98.7647C21.962 98.6237 21.8764 98.545 21.705 98.5277V98.3633H24.3593V98.5277C24.2369 98.5622 24.1499 98.6058 24.1008 98.6618C24.0538 98.7162 24.0296 98.7944 24.0296 98.8978V104.842C24.0296 104.95 24.0538 105.03 24.1008 105.084C24.1499 105.139 24.2369 105.182 24.3593 105.219V105.383H22.1659V105.219C22.2882 105.186 22.3723 105.144 22.4213 105.086C22.4719 105.03 22.4961 104.95 22.4961 104.842V100.532L19.7666 105.383V105.383ZM31.5401 100.148V103.197C31.5401 103.893 31.4021 104.404 31.1298 104.73C30.6862 105.249 29.8532 105.506 28.6271 105.506C27.8084 105.506 27.1465 105.381 26.6416 105.13C26.2784 104.95 26.0303 104.69 25.8962 104.355C25.772 104.045 25.711 103.66 25.711 103.197V100.148C25.711 100.041 25.6863 99.9612 25.6392 99.9051C25.5903 99.8513 25.5051 99.8037 25.3808 99.7671V99.624H27.4222V99.7671C27.2965 99.8022 27.2094 99.8459 27.1604 99.9038C27.1133 99.9612 27.0886 100.041 27.0886 100.148V102.921C27.0886 103.242 27.1169 103.488 27.1743 103.66C27.2322 103.831 27.3297 103.972 27.4693 104.082C27.7505 104.306 28.1574 104.416 28.6885 104.416C29.2211 104.416 29.6279 104.306 29.9092 104.082C30.0453 103.972 30.1413 103.831 30.1972 103.66C30.2512 103.488 30.2793 103.242 30.2793 102.921V100.148C30.2793 100.041 30.2566 99.9612 30.2091 99.9051C30.164 99.8513 30.075 99.8037 29.9492 99.7671V99.624H31.8698V99.7671C31.746 99.8022 31.6605 99.8459 31.6114 99.9038C31.5643 99.9612 31.5401 100.041 31.5401 100.148V100.148ZM34.477 103.019V104.854C34.477 104.961 34.5017 105.043 34.5488 105.099C34.5977 105.155 34.6834 105.202 34.8072 105.24V105.383H32.7677V105.24C32.89 105.209 32.9736 105.163 33.0227 105.106C33.0731 105.048 33.0994 104.966 33.0994 104.858V100.148C33.0994 100.041 33.0731 99.9612 33.0261 99.9051C32.9771 99.8513 32.8935 99.8037 32.7677 99.7671V99.624H36.5431C37.0336 99.624 37.4073 99.6483 37.6642 99.6974C37.9207 99.7483 38.1513 99.8369 38.3538 99.9681C38.7695 100.239 38.9754 100.682 38.9754 101.295C38.9754 101.761 38.8477 102.126 38.5929 102.389C38.3364 102.652 37.9241 102.841 37.3548 102.958L38.4463 104.475C38.6438 104.755 38.8042 104.947 38.9215 105.046C39.0399 105.147 39.1745 105.212 39.3244 105.24V105.383H36.9044V105.24C37.0841 105.191 37.1731 105.114 37.1731 105.01C37.1731 104.934 37.1172 104.818 37.0074 104.666L35.8565 103.019H34.477V103.019ZM34.477 101.974H36.5534C36.8692 101.974 37.1034 101.94 37.2519 101.87C37.4647 101.779 37.5717 101.596 37.5717 101.321C37.5717 101.077 37.4979 100.908 37.3479 100.812C37.1994 100.716 36.9341 100.668 36.5534 100.668H34.477V101.974V101.974ZM44.6298 103.944H41.9792L41.6822 104.571C41.6089 104.722 41.5737 104.84 41.5737 104.925C41.5737 105.09 41.6835 105.195 41.9038 105.24V105.383H39.7838V105.24C39.9129 105.219 40.0091 105.179 40.0753 105.121C40.1383 105.062 40.212 104.948 40.2971 104.776L42.4013 100.518C42.48 100.358 42.5202 100.216 42.5202 100.096C42.5202 99.9557 42.4241 99.8459 42.232 99.7671V99.624H44.4689V99.7671C44.2803 99.8423 44.1863 99.9591 44.1863 100.117C44.1863 100.23 44.2279 100.369 44.3155 100.532L46.4945 104.664C46.6167 104.889 46.7093 105.032 46.7776 105.099C46.8459 105.165 46.9523 105.214 47.0919 105.24V105.383H44.7417V105.24C44.965 105.202 45.0749 105.097 45.0749 104.927C45.0749 104.821 45.0332 104.69 44.9457 104.531L44.6298 103.944V103.944ZM44.214 103.135L43.2711 101.285L42.3737 103.135H44.214ZM47.8987 104.858V100.148C47.8987 100.041 47.874 99.9612 47.827 99.9051C47.778 99.8513 47.6943 99.8037 47.5687 99.7671V99.624H50.9494C51.6514 99.624 52.2067 99.7111 52.6101 99.8845C53.1809 100.132 53.5898 100.539 53.8412 101.11C54.0139 101.507 54.1011 101.973 54.1011 102.502C54.1011 103.487 53.808 104.234 53.223 104.74C52.9591 104.968 52.6468 105.13 52.2889 105.233C51.9306 105.332 51.4836 105.383 50.9494 105.383H47.5687V105.24C47.6909 105.209 47.7746 105.163 47.8235 105.106C47.874 105.048 47.8987 104.966 47.8987 104.858V104.858ZM49.2783 104.339H50.7484C51.4241 104.339 51.9152 104.183 52.2206 103.875C52.5383 103.553 52.6973 103.095 52.6973 102.502C52.6973 101.91 52.5383 101.453 52.2206 101.131C52.0617 100.97 51.8661 100.852 51.634 100.778C51.3999 100.705 51.1048 100.668 50.7484 100.668H49.2783V104.339Z" fill="white"/>
<path d="M63.9984 101.706C64.786 102.005 65.1825 102.558 65.1825 103.363C65.1825 104.004 64.9517 104.507 64.491 104.87C64.2602 105.052 63.9895 105.182 63.6821 105.263C63.3747 105.343 62.9961 105.383 62.5436 105.383H57.7432V105.219C57.8674 105.184 57.9531 105.139 58.0016 105.085C58.0491 105.03 58.0733 104.95 58.0733 104.844V98.9048C58.0733 98.7964 58.0491 98.7162 58.0016 98.6623C57.9531 98.6078 57.8674 98.5622 57.7432 98.5277V98.3633H62.4947C62.9525 98.3633 63.3193 98.3985 63.5965 98.4662C63.8762 98.5346 64.1173 98.6513 64.3266 98.8157C64.7424 99.1405 64.9499 99.6122 64.9499 100.226C64.9499 100.911 64.632 101.406 63.9984 101.706V101.706ZM59.6064 101.156H62.2956C62.7045 101.156 62.9891 101.096 63.1495 100.976C63.3312 100.838 63.4222 100.626 63.4222 100.338C63.4222 100.043 63.3366 99.832 63.1654 99.7082C62.994 99.5839 62.7045 99.5196 62.2956 99.5196H59.6064V101.156V101.156ZM59.6064 104.227H62.2065C62.6921 104.227 63.0396 104.159 63.2524 104.027C63.4955 103.873 63.6178 103.62 63.6178 103.27C63.6178 102.925 63.4955 102.671 63.2524 102.512C63.0431 102.38 62.6957 102.313 62.2065 102.313H59.6064V104.227ZM72.1515 100.148V103.199C72.1515 103.894 72.0135 104.404 71.7392 104.73C71.2976 105.249 70.4645 105.507 69.239 105.507C68.4198 105.507 67.7579 105.381 67.2535 105.13C66.8901 104.95 66.6422 104.69 66.5076 104.355C66.3838 104.046 66.3224 103.66 66.3224 103.199V100.148C66.3224 100.041 66.2982 99.9612 66.2511 99.9072C66.2022 99.8513 66.1165 99.8042 65.9927 99.7676V99.6241H68.0341V99.7676C67.9084 99.8022 67.8207 99.8458 67.7718 99.9051C67.7247 99.9612 67.7005 100.041 67.7005 100.148V102.921C67.7005 103.242 67.7283 103.488 67.7842 103.66C67.8436 103.831 67.9416 103.973 68.0811 104.082C68.3624 104.306 68.7693 104.416 69.2999 104.416C69.8325 104.416 70.2393 104.306 70.5206 104.082C70.6567 103.973 70.7527 103.831 70.8086 103.66C70.8631 103.488 70.8907 103.242 70.8907 102.921V100.148C70.8907 100.041 70.868 99.9612 70.821 99.9072C70.7754 99.8513 70.6863 99.8042 70.5606 99.7676V99.6241H72.4817V99.7676C72.3574 99.8022 72.2719 99.8458 72.2233 99.9051C72.1757 99.9612 72.1515 100.041 72.1515 100.148V100.148ZM75.0889 100.148V104.854C75.0889 104.961 75.1131 105.041 75.1602 105.099C75.2091 105.155 75.2948 105.204 75.4185 105.24V105.383H73.3791V105.24C73.5013 105.209 73.585 105.165 73.6341 105.106C73.6845 105.048 73.7093 104.966 73.7093 104.86V100.148C73.7093 100.041 73.6845 99.9612 73.6375 99.9072C73.5885 99.8513 73.5049 99.8042 73.3791 99.7676V99.6241H75.4185V99.7676C75.2948 99.8022 75.2091 99.8458 75.1602 99.9051C75.1131 99.9612 75.0889 100.041 75.0889 100.148V100.148ZM78.1375 104.339H81.3614C81.4713 104.339 81.5535 104.315 81.6075 104.268C81.6633 104.22 81.7104 104.131 81.747 104.006H81.8852V105.714H81.747C81.7124 105.589 81.6683 105.506 81.609 105.455C81.5535 105.408 81.4713 105.383 81.3614 105.383H76.4298V105.24C76.55 105.209 76.6342 105.165 76.6847 105.106C76.7352 105.048 76.7599 104.966 76.7599 104.86V100.148C76.7599 100.041 76.7352 99.9612 76.6866 99.9072C76.6377 99.8513 76.554 99.8042 76.4298 99.7676V99.6241H78.4677V99.7676C78.3455 99.8022 78.2583 99.8458 78.2093 99.9051C78.1623 99.9612 78.1375 100.041 78.1375 100.148V104.339V104.339ZM82.8073 104.86V100.148C82.8073 100.041 82.7826 99.9612 82.7355 99.9072C82.6866 99.8513 82.6009 99.8042 82.4771 99.7676V99.6241H85.856C86.5598 99.6241 87.1133 99.7116 87.5167 99.8845C88.0879 100.132 88.4963 100.539 88.7478 101.11C88.9225 101.507 89.0096 101.973 89.0096 102.502C89.0096 103.487 88.7166 104.234 88.1294 104.741C87.8656 104.968 87.5553 105.13 87.1954 105.233C86.8375 105.333 86.392 105.383 85.856 105.383H82.4771V105.24C82.5975 105.209 82.683 105.165 82.7321 105.106C82.7826 105.048 82.8073 104.966 82.8073 104.86V104.86ZM84.1849 104.339H85.657C86.3326 104.339 86.8217 104.185 87.1272 103.876C87.4449 103.555 87.6057 103.096 87.6057 102.502C87.6057 101.912 87.4449 101.453 87.1272 101.131C86.9702 100.97 86.7727 100.852 86.5405 100.778C86.3084 100.705 86.0134 100.668 85.657 100.668H84.1849V104.339ZM91.5975 100.148V104.854C91.5975 104.961 91.6222 105.041 91.6693 105.099C91.7182 105.155 91.8039 105.204 91.9277 105.24V105.383H89.8897V105.24C90.0104 105.209 90.0941 105.165 90.1432 105.106C90.1936 105.048 90.2199 104.966 90.2199 104.86V100.148C90.2199 100.041 90.1936 99.9612 90.1466 99.9072C90.0976 99.8513 90.014 99.8042 89.8897 99.7676V99.6241H91.9277V99.7676C91.8039 99.8022 91.7182 99.8458 91.6693 99.9051C91.6222 99.9612 91.5975 100.041 91.5975 100.148ZM94.5244 101.589V104.856C94.5244 104.961 94.5486 105.043 94.5996 105.1C94.6482 105.16 94.7323 105.205 94.8546 105.24V105.383H92.9389V105.24C93.0591 105.209 93.1429 105.165 93.1939 105.106C93.2443 105.048 93.2685 104.966 93.2685 104.86V100.148C93.2685 100.041 93.2443 99.9612 93.1973 99.9072C93.1463 99.8513 93.0626 99.8042 92.9389 99.7676V99.6241H95.1511V99.7676C94.999 99.8042 94.9243 99.8721 94.9243 99.9681C94.9243 100.05 94.9802 100.146 95.0881 100.256L98.174 103.321V100.148C98.174 100.041 98.1498 99.9612 98.1022 99.9051C98.0517 99.8458 97.9681 99.8022 97.8438 99.7676V99.6241H99.7595V99.7676C99.6357 99.8022 99.5501 99.8458 99.5011 99.9051C99.454 99.9612 99.4293 100.041 99.4293 100.148V104.854C99.4293 104.961 99.454 105.041 99.5011 105.099C99.5501 105.155 99.6357 105.204 99.7595 105.24V105.383H97.6953V105.24C97.8472 105.211 97.9225 105.146 97.9225 105.05C97.9225 105.003 97.9017 104.954 97.8611 104.903C97.8196 104.853 97.7236 104.751 97.5765 104.603L94.5244 101.589V101.589ZM105.966 103.16H104.654C104.544 103.16 104.462 103.187 104.406 103.234C104.349 103.283 104.303 103.366 104.268 103.491H104.13V101.968H104.268C104.303 102.088 104.349 102.17 104.406 102.221C104.462 102.268 104.544 102.293 104.654 102.293H107.398V102.441C107.275 102.476 107.191 102.527 107.143 102.591C107.092 102.656 107.068 102.748 107.068 102.869V104.082C107.068 104.19 107.092 104.273 107.143 104.331C107.191 104.388 107.275 104.433 107.398 104.468V104.587C106.285 105.2 105.178 105.507 104.074 105.507C103.121 105.507 102.349 105.282 101.761 104.831C101.441 104.587 101.185 104.281 100.987 103.918C100.758 103.485 100.643 103.024 100.643 102.535C100.643 101.854 100.853 101.254 101.27 100.724C101.922 99.9087 102.885 99.5003 104.162 99.5003C104.721 99.5003 105.358 99.624 106.076 99.8706C106.36 99.9666 106.525 100.016 106.574 100.016C106.631 100.016 106.701 99.9874 106.779 99.9334L106.902 99.9998L106.219 101.449L106.095 101.388V101.357C106.095 101.231 105.967 101.1 105.714 100.967C105.245 100.716 104.742 100.592 104.202 100.592C103.582 100.592 103.074 100.761 102.674 101.1C102.257 101.456 102.047 101.936 102.047 102.541C102.047 103.104 102.237 103.558 102.618 103.897C103.009 104.243 103.558 104.416 104.263 104.416C104.936 104.416 105.503 104.292 105.966 104.04V103.16V103.16ZM113.894 100.143L113.197 101.486L113.074 101.419C113.074 101.307 113.038 101.218 112.966 101.152C112.771 100.977 112.483 100.833 112.102 100.721C111.721 100.607 111.335 100.552 110.946 100.552C110.611 100.552 110.317 100.597 110.061 100.689C109.691 100.822 109.503 101.016 109.503 101.271C109.503 101.439 109.593 101.558 109.771 101.627C109.949 101.697 110.294 101.753 110.804 101.795L111.618 101.856C112.329 101.912 112.867 102.048 113.239 102.268C113.445 102.39 113.614 102.556 113.747 102.76C113.916 103.019 114 103.307 114 103.63C114 104.217 113.737 104.678 113.207 105.019C112.705 105.343 112.021 105.507 111.161 105.507C110.291 105.507 109.454 105.322 108.646 104.956C108.59 104.933 108.543 104.92 108.507 104.92C108.438 104.92 108.374 104.961 108.316 105.043L108.187 104.992L108.779 103.583L108.906 103.633V103.676C108.906 103.765 108.941 103.841 109.011 103.902C109.181 104.053 109.477 104.183 109.9 104.295C110.323 104.405 110.738 104.461 111.15 104.461C111.514 104.461 111.838 104.414 112.126 104.318C112.483 104.203 112.663 104.013 112.663 103.752C112.663 103.544 112.538 103.398 112.292 103.318C112.126 103.262 111.829 103.216 111.402 103.178L110.593 103.11C110.158 103.077 109.827 103.033 109.596 102.977C109.367 102.923 109.166 102.841 108.996 102.736C108.775 102.6 108.604 102.411 108.48 102.174C108.358 101.94 108.295 101.68 108.295 101.399C108.295 100.768 108.566 100.286 109.109 99.9542C109.601 99.6523 110.212 99.5003 110.941 99.5003C111.335 99.5003 111.702 99.5438 112.044 99.633C112.385 99.7201 112.792 99.8721 113.267 100.092C113.407 100.157 113.503 100.19 113.558 100.19C113.614 100.19 113.684 100.152 113.77 100.076L113.894 100.143V100.143Z" fill="white"/>
<path d="M15 96.1409H113.813V94.8906H15V96.1409Z" fill="white"/>
<path d="M15 109.18H113.813V107.93H15V109.18Z" fill="white"/>
</g>
</svg>
