<svg width="191" height="59" viewBox="0 0 191 59" fill="none" xmlns="http://www.w3.org/2000/svg">
<path d="M187.957 0.711526C187.798 0.18272 187.24 -0.116807 186.712 0.0425122L178.094 2.63878C177.565 2.7981 177.266 3.35593 177.425 3.88474C177.584 4.41355 178.142 4.71307 178.671 4.55375L186.331 2.24596L188.639 9.90586C188.798 10.4347 189.356 10.7342 189.885 10.5749C190.414 10.4156 190.713 9.85772 190.554 9.32892L187.957 0.711526ZM0.0933937 1.42198C19.2972 42.6809 56.7919 60.3839 94.1908 58.9159C131.555 57.4493 168.886 36.8499 187.881 1.47306L186.119 0.526936C167.489 35.2227 130.835 55.476 94.1124 56.9174C57.425 58.3575 20.7322 41.0242 1.90661 0.578022L0.0933937 1.42198Z" fill="url(#paint0_linear_359_1605)"/>
<defs>
<linearGradient id="paint0_linear_359_1605" x1="187" y1="1" x2="1" y2="1" gradientUnits="userSpaceOnUse">
<stop stop-color="#D9AF78"/>
<stop offset="1" stop-color="#D9AF78" stop-opacity="0"/>
</linearGradient>
</defs>
</svg>
